<svg width="633" height="200" viewBox="0 0 633 200" fill="none" xmlns="http://www.w3.org/2000/svg">
<g clip-path="url(#clip0_3_165)">
<rect width="633" height="199.962" fill="white"/>
<g clip-path="url(#clip1_3_165)">
<path d="M517.099 0H117.175V200H517.099V0Z" fill="white"/>
<path d="M121.174 0V200" stroke="#C8C8C8" stroke-width="0.399923"/>
<path d="M125.174 0V200" stroke="#C8C8C8" stroke-width="0.399923"/>
<path d="M129.173 0V200" stroke="#C8C8C8" stroke-width="0.399923"/>
<path d="M133.172 0V200" stroke="#C8C8C8" stroke-width="0.399923"/>
<path d="M137.171 0V200" stroke="#C8C8C8" stroke-width="0.399923"/>
<path d="M141.17 0V200" stroke="#C8C8C8" stroke-width="0.399923"/>
<path d="M145.17 0V200" stroke="#C8C8C8" stroke-width="0.399923"/>
<path d="M149.169 0V200" stroke="#C8C8C8" stroke-width="0.399923"/>
<path d="M153.168 0V200" stroke="#C8C8C8" stroke-width="0.399923"/>
<path d="M157.167 0V200" stroke="#C8C8C8" stroke-width="0.399923"/>
<path d="M161.167 0V200" stroke="#C8C8C8" stroke-width="0.399923"/>
<path d="M165.166 0V200" stroke="#C8C8C8" stroke-width="0.399923"/>
<path d="M169.165 0V200" stroke="#C8C8C8" stroke-width="0.399923"/>
<path d="M173.164 0V200" stroke="#C8C8C8" stroke-width="0.399923"/>
<path d="M177.164 0V200" stroke="#C8C8C8" stroke-width="0.399923"/>
<path d="M181.163 0V200" stroke="#C8C8C8" stroke-width="0.399923"/>
<path d="M185.162 0V200" stroke="#C8C8C8" stroke-width="0.399923"/>
<path d="M189.161 0V200" stroke="#C8C8C8" stroke-width="0.399923"/>
<path d="M193.16 0V200" stroke="#C8C8C8" stroke-width="0.399923"/>
<path d="M197.16 0V200" stroke="#C8C8C8" stroke-width="0.399923"/>
<path d="M201.159 0V200" stroke="#C8C8C8" stroke-width="0.399923"/>
<path d="M205.158 0V200" stroke="#C8C8C8" stroke-width="0.399923"/>
<path d="M209.157 0V200" stroke="#C8C8C8" stroke-width="0.399923"/>
<path d="M213.157 0V200" stroke="#C8C8C8" stroke-width="0.399923"/>
<path d="M217.156 0V200" stroke="#C8C8C8" stroke-width="0.399923"/>
<path d="M221.155 0V200" stroke="#C8C8C8" stroke-width="0.399923"/>
<path d="M225.154 0V200" stroke="#C8C8C8" stroke-width="0.399923"/>
<path d="M229.154 0V200" stroke="#C8C8C8" stroke-width="0.399923"/>
<path d="M233.153 0V200" stroke="#C8C8C8" stroke-width="0.399923"/>
<path d="M237.152 0V200" stroke="#C8C8C8" stroke-width="0.399923"/>
<path d="M241.151 0V200" stroke="#C8C8C8" stroke-width="0.399923"/>
<path d="M245.151 0V200" stroke="#C8C8C8" stroke-width="0.399923"/>
<path d="M249.15 0V200" stroke="#C8C8C8" stroke-width="0.399923"/>
<path d="M253.149 0V200" stroke="#C8C8C8" stroke-width="0.399923"/>
<path d="M257.148 0V200" stroke="#C8C8C8" stroke-width="0.399923"/>
<path d="M261.148 0V200" stroke="#C8C8C8" stroke-width="0.399923"/>
<path d="M265.147 0V200" stroke="#C8C8C8" stroke-width="0.399923"/>
<path d="M269.146 0V200" stroke="#C8C8C8" stroke-width="0.399923"/>
<path d="M273.145 0V200" stroke="#C8C8C8" stroke-width="0.399923"/>
<path d="M277.144 0V200" stroke="#C8C8C8" stroke-width="0.399923"/>
<path d="M281.144 0V200" stroke="#C8C8C8" stroke-width="0.399923"/>
<path d="M285.143 0V200" stroke="#C8C8C8" stroke-width="0.399923"/>
<path d="M289.142 0V200" stroke="#C8C8C8" stroke-width="0.399923"/>
<path d="M293.141 0V200" stroke="#C8C8C8" stroke-width="0.399923"/>
<path d="M297.141 0V200" stroke="#C8C8C8" stroke-width="0.399923"/>
<path d="M301.14 0V200" stroke="#C8C8C8" stroke-width="0.399923"/>
<path d="M305.139 0V200" stroke="#C8C8C8" stroke-width="0.399923"/>
<path d="M309.138 0V200" stroke="#C8C8C8" stroke-width="0.399923"/>
<path d="M313.138 0V200" stroke="#C8C8C8" stroke-width="0.399923"/>
<path d="M317.137 0V200" stroke="#C8C8C8" stroke-width="0.399923"/>
<path d="M321.136 0V200" stroke="#C8C8C8" stroke-width="0.399923"/>
<path d="M325.135 0V200" stroke="#C8C8C8" stroke-width="0.399923"/>
<path d="M329.135 0V200" stroke="#C8C8C8" stroke-width="0.399923"/>
<path d="M333.134 0V200" stroke="#C8C8C8" stroke-width="0.399923"/>
<path d="M337.133 0V200" stroke="#C8C8C8" stroke-width="0.399923"/>
<path d="M341.132 0V200" stroke="#C8C8C8" stroke-width="0.399923"/>
<path d="M345.132 0V200" stroke="#C8C8C8" stroke-width="0.399923"/>
<path d="M349.13 0V200" stroke="#C8C8C8" stroke-width="0.399923"/>
<path d="M353.13 0V200" stroke="#C8C8C8" stroke-width="0.399923"/>
<path d="M357.129 0V200" stroke="#C8C8C8" stroke-width="0.399923"/>
<path d="M361.129 0V200" stroke="#C8C8C8" stroke-width="0.399923"/>
<path d="M365.127 0V200" stroke="#C8C8C8" stroke-width="0.399923"/>
<path d="M369.127 0V200" stroke="#C8C8C8" stroke-width="0.399923"/>
<path d="M373.126 0V200" stroke="#C8C8C8" stroke-width="0.399923"/>
<path d="M377.125 0V200" stroke="#C8C8C8" stroke-width="0.399923"/>
<path d="M381.124 0V200" stroke="#C8C8C8" stroke-width="0.399923"/>
<path d="M385.124 0V200" stroke="#C8C8C8" stroke-width="0.399923"/>
<path d="M389.123 0V200" stroke="#C8C8C8" stroke-width="0.399923"/>
<path d="M393.122 0V200" stroke="#C8C8C8" stroke-width="0.399923"/>
<path d="M397.122 0V200" stroke="#C8C8C8" stroke-width="0.399923"/>
<path d="M401.121 0V200" stroke="#C8C8C8" stroke-width="0.399923"/>
<path d="M405.12 0V200" stroke="#C8C8C8" stroke-width="0.399923"/>
<path d="M409.119 0V200" stroke="#C8C8C8" stroke-width="0.399923"/>
<path d="M413.118 0V200" stroke="#C8C8C8" stroke-width="0.399923"/>
<path d="M417.118 0V200" stroke="#C8C8C8" stroke-width="0.399923"/>
<path d="M421.117 0V200" stroke="#C8C8C8" stroke-width="0.399923"/>
<path d="M425.116 0V200" stroke="#C8C8C8" stroke-width="0.399923"/>
<path d="M429.115 0V200" stroke="#C8C8C8" stroke-width="0.399923"/>
<path d="M433.115 0V200" stroke="#C8C8C8" stroke-width="0.399923"/>
<path d="M437.114 0V200" stroke="#C8C8C8" stroke-width="0.399923"/>
<path d="M441.113 0V200" stroke="#C8C8C8" stroke-width="0.399923"/>
<path d="M445.112 0V200" stroke="#C8C8C8" stroke-width="0.399923"/>
<path d="M449.112 0V200" stroke="#C8C8C8" stroke-width="0.399923"/>
<path d="M453.111 0V200" stroke="#C8C8C8" stroke-width="0.399923"/>
<path d="M457.11 0V200" stroke="#C8C8C8" stroke-width="0.399923"/>
<path d="M461.109 0V200" stroke="#C8C8C8" stroke-width="0.399923"/>
<path d="M465.109 0V200" stroke="#C8C8C8" stroke-width="0.399923"/>
<path d="M469.108 0V200" stroke="#C8C8C8" stroke-width="0.399923"/>
<path d="M473.107 0V200" stroke="#C8C8C8" stroke-width="0.399923"/>
<path d="M477.106 0V200" stroke="#C8C8C8" stroke-width="0.399923"/>
<path d="M481.105 0V200" stroke="#C8C8C8" stroke-width="0.399923"/>
<path d="M485.105 0V200" stroke="#C8C8C8" stroke-width="0.399923"/>
<path d="M489.104 0V200" stroke="#C8C8C8" stroke-width="0.399923"/>
<path d="M493.103 0V200" stroke="#C8C8C8" stroke-width="0.399923"/>
<path d="M497.103 0V200" stroke="#C8C8C8" stroke-width="0.399923"/>
<path d="M501.101 0V200" stroke="#C8C8C8" stroke-width="0.399923"/>
<path d="M505.101 0V200" stroke="#C8C8C8" stroke-width="0.399923"/>
<path d="M509.1 0V200" stroke="#C8C8C8" stroke-width="0.399923"/>
<path d="M513.099 0V200" stroke="#C8C8C8" stroke-width="0.399923"/>
<path d="M117.175 3.99988H517.099" stroke="#C0C0C0" stroke-width="0.399923"/>
<path d="M117.175 8.00005H517.099" stroke="#C0C0C0" stroke-width="0.399923"/>
<path d="M117.175 11.9999H517.099" stroke="#C0C0C0" stroke-width="0.399923"/>
<path d="M117.175 16.0001H517.099" stroke="#C0C0C0" stroke-width="0.399923"/>
<path d="M117.175 19.9999H517.099" stroke="#C0C0C0" stroke-width="0.399923"/>
<path d="M117.175 24.0001H517.099" stroke="#C0C0C0" stroke-width="0.399923"/>
<path d="M117.175 28H517.099" stroke="#C0C0C0" stroke-width="0.399923"/>
<path d="M117.175 32H517.099" stroke="#C0C0C0" stroke-width="0.399923"/>
<path d="M117.175 36H517.099" stroke="#C0C0C0" stroke-width="0.399923"/>
<path d="M117.175 40H517.099" stroke="#C0C0C0" stroke-width="0.399923"/>
<path d="M117.175 44H517.099" stroke="#C0C0C0" stroke-width="0.399923"/>
<path d="M117.175 48.0001H517.099" stroke="#C0C0C0" stroke-width="0.399923"/>
<path d="M117.175 51.9999H517.099" stroke="#C0C0C0" stroke-width="0.399923"/>
<path d="M117.175 56H517.099" stroke="#C0C0C0" stroke-width="0.399923"/>
<path d="M117.175 60H517.099" stroke="#C0C0C0" stroke-width="0.399923"/>
<path d="M117.175 64H517.099" stroke="#C0C0C0" stroke-width="0.399923"/>
<path d="M117.175 68H517.099" stroke="#C0C0C0" stroke-width="0.399923"/>
<path d="M117.175 72H517.099" stroke="#C0C0C0" stroke-width="0.399923"/>
<path d="M117.175 75.9999H517.099" stroke="#C0C0C0" stroke-width="0.399923"/>
<path d="M117.175 80.0001H517.099" stroke="#C0C0C0" stroke-width="0.399923"/>
<path d="M117.175 83.9999H517.099" stroke="#C0C0C0" stroke-width="0.399923"/>
<path d="M117.175 88.0001H517.099" stroke="#C0C0C0" stroke-width="0.399923"/>
<path d="M117.175 92H517.099" stroke="#C0C0C0" stroke-width="0.399923"/>
<path d="M117.175 96.0001H517.099" stroke="#C0C0C0" stroke-width="0.399923"/>
<path d="M117.175 100H517.099" stroke="#C0C0C0" stroke-width="0.399923"/>
<path d="M117.175 104H517.099" stroke="#C0C0C0" stroke-width="0.399923"/>
<path d="M117.175 108H517.099" stroke="#C0C0C0" stroke-width="0.399923"/>
<path d="M117.175 112H517.099" stroke="#C0C0C0" stroke-width="0.399923"/>
<path d="M117.175 116H517.099" stroke="#C0C0C0" stroke-width="0.399923"/>
<path d="M117.175 120H517.099" stroke="#C0C0C0" stroke-width="0.399923"/>
<path d="M117.175 124H517.099" stroke="#C0C0C0" stroke-width="0.399923"/>
<path d="M117.175 128H517.099" stroke="#C0C0C0" stroke-width="0.399923"/>
<path d="M117.175 132H517.099" stroke="#C0C0C0" stroke-width="0.399923"/>
<path d="M117.175 136H517.099" stroke="#C0C0C0" stroke-width="0.399923"/>
<path d="M117.175 140H517.099" stroke="#C0C0C0" stroke-width="0.399923"/>
<path d="M117.175 144H517.099" stroke="#C0C0C0" stroke-width="0.399923"/>
<path d="M117.175 148H517.099" stroke="#C0C0C0" stroke-width="0.399923"/>
<path d="M117.175 152H517.099" stroke="#C0C0C0" stroke-width="0.399923"/>
<path d="M117.175 156H517.099" stroke="#C0C0C0" stroke-width="0.399923"/>
<path d="M117.175 160H517.099" stroke="#C0C0C0" stroke-width="0.399923"/>
<path d="M117.175 164H517.099" stroke="#C0C0C0" stroke-width="0.399923"/>
<path d="M117.175 168H517.099" stroke="#C0C0C0" stroke-width="0.399923"/>
<path d="M117.175 172H517.099" stroke="#C0C0C0" stroke-width="0.399923"/>
<path d="M117.175 176H517.099" stroke="#C0C0C0" stroke-width="0.399923"/>
<path d="M117.175 180H517.099" stroke="#C0C0C0" stroke-width="0.399923"/>
<path d="M117.175 184H517.099" stroke="#C0C0C0" stroke-width="0.399923"/>
<path d="M117.175 188H517.099" stroke="#C0C0C0" stroke-width="0.399923"/>
<path d="M117.175 192H517.099" stroke="#C0C0C0" stroke-width="0.399923"/>
<path d="M117.175 196H517.099" stroke="#C0C0C0" stroke-width="0.399923"/>
<path d="M517.099 0H117.175V200H517.099V0Z" fill="url(#paint0_radial_3_165)"/>
</g>
<path d="M61.1347 126.115L310.769 126.742L560.402 127.369" stroke="url(#paint1_linear_3_165)" stroke-width="1.27364"/>
<path d="M221.614 175.159V15.2865" stroke="url(#paint2_linear_3_165)" stroke-width="1.27364"/>
<path d="M72.8551 151.21V139.272H75.0406V149.008H84.7763V151.21H72.8551ZM85.7747 151.21V141.59C85.7747 141.171 85.8796 140.79 86.0893 140.448C86.299 140.095 86.575 139.813 86.9171 139.603C87.2704 139.394 87.6567 139.289 88.0762 139.289H95.3779C95.7974 139.289 96.1837 139.394 96.537 139.603C96.8902 139.813 97.1717 140.095 97.3814 140.448C97.5911 140.79 97.696 141.171 97.696 141.59V151.21H95.4938V147.203H87.9603V151.21H85.7747ZM87.9603 145.018H95.4938V141.69C95.4938 141.634 95.4718 141.59 95.4276 141.557C95.3835 141.513 95.3338 141.491 95.2786 141.491H88.1589C88.1038 141.491 88.0541 141.513 88.0099 141.557C87.9768 141.59 87.9603 141.634 87.9603 141.69V145.018ZM99.6321 151.21V139.289H108.772C109.191 139.289 109.572 139.394 109.914 139.603C110.267 139.813 110.549 140.095 110.759 140.448C110.968 140.79 111.073 141.171 111.073 141.59V143.925C111.073 144.068 111.062 144.206 111.04 144.339C111.018 144.471 110.979 144.598 110.924 144.72C111.112 144.973 111.261 145.238 111.371 145.514C111.493 145.79 111.553 146.066 111.553 146.342V148.909C111.553 149.328 111.449 149.714 111.239 150.068C111.029 150.41 110.748 150.686 110.394 150.895C110.041 151.105 109.655 151.21 109.235 151.21H99.6321ZM102.016 149.008H109.136C109.191 149.008 109.241 148.991 109.285 148.958C109.329 148.914 109.351 148.864 109.351 148.809V146.442C109.351 146.386 109.329 146.342 109.285 146.309C109.241 146.265 109.191 146.243 109.136 146.243H102.016C101.961 146.243 101.912 146.265 101.867 146.309C101.834 146.342 101.818 146.386 101.818 146.442V148.809C101.818 148.864 101.834 148.914 101.867 148.958C101.912 148.991 101.961 149.008 102.016 149.008ZM102.016 144.041H108.672C108.728 144.041 108.772 144.024 108.805 143.991C108.838 143.947 108.855 143.897 108.855 143.842V141.69C108.855 141.634 108.838 141.59 108.805 141.557C108.772 141.513 108.728 141.491 108.672 141.491H102.016C101.961 141.491 101.912 141.513 101.867 141.557C101.834 141.59 101.818 141.634 101.818 141.69V143.842C101.818 143.897 101.834 143.947 101.867 143.991C101.912 144.024 101.961 144.041 102.016 144.041ZM115.627 151.21C115.208 151.21 114.821 151.105 114.468 150.895C114.126 150.686 113.85 150.41 113.64 150.068C113.43 149.714 113.326 149.328 113.326 148.909V141.59C113.326 141.171 113.43 140.79 113.64 140.448C113.85 140.095 114.126 139.813 114.468 139.603C114.821 139.394 115.208 139.289 115.627 139.289H122.945C123.365 139.289 123.746 139.394 124.088 139.603C124.441 139.813 124.723 140.095 124.932 140.448C125.142 140.79 125.247 141.171 125.247 141.59V148.909C125.247 149.328 125.142 149.714 124.932 150.068C124.723 150.41 124.441 150.686 124.088 150.895C123.746 151.105 123.365 151.21 122.945 151.21H115.627ZM115.71 149.008H122.829C122.885 149.008 122.934 148.991 122.978 148.958C123.023 148.914 123.045 148.864 123.045 148.809V141.69C123.045 141.634 123.023 141.59 122.978 141.557C122.934 141.513 122.885 141.491 122.829 141.491H115.71C115.655 141.491 115.605 141.513 115.561 141.557C115.528 141.59 115.511 141.634 115.511 141.69V148.809C115.511 148.864 115.528 148.914 115.561 148.958C115.605 148.991 115.655 149.008 115.71 149.008ZM136.574 151.21L132.981 146.922H135.846L138.958 150.597V151.21H136.574ZM127.07 151.21V139.305H136.673C137.093 139.305 137.479 139.41 137.832 139.62C138.186 139.83 138.467 140.111 138.677 140.464C138.887 140.807 138.991 141.187 138.991 141.607V144.819C138.991 145.238 138.887 145.625 138.677 145.978C138.467 146.331 138.186 146.613 137.832 146.822C137.479 147.021 137.093 147.12 136.673 147.12L129.256 147.137V151.21H127.07ZM129.454 144.918H136.574C136.629 144.918 136.679 144.902 136.723 144.869C136.767 144.836 136.789 144.791 136.789 144.736V141.69C136.789 141.634 136.767 141.59 136.723 141.557C136.679 141.513 136.629 141.491 136.574 141.491H129.454C129.399 141.491 129.35 141.513 129.305 141.557C129.272 141.59 129.256 141.634 129.256 141.69V144.736C129.256 144.791 129.272 144.836 129.305 144.869C129.35 144.902 129.399 144.918 129.454 144.918ZM140.766 151.21V141.59C140.766 141.171 140.871 140.79 141.081 140.448C141.291 140.095 141.567 139.813 141.909 139.603C142.262 139.394 142.648 139.289 143.068 139.289H150.37C150.789 139.289 151.175 139.394 151.529 139.603C151.882 139.813 152.163 140.095 152.373 140.448C152.583 140.79 152.688 141.171 152.688 141.59V151.21H150.486V147.203H142.952V151.21H140.766ZM142.952 145.018H150.486V141.69C150.486 141.634 150.463 141.59 150.419 141.557C150.375 141.513 150.325 141.491 150.27 141.491H143.151C143.095 141.491 143.046 141.513 143.002 141.557C142.968 141.59 142.952 141.634 142.952 141.69V145.018ZM158.846 151.21V141.491H153.978V139.289H165.899V141.491H161.048V151.21H158.846ZM169.406 151.21C168.987 151.21 168.6 151.105 168.247 150.895C167.905 150.686 167.629 150.41 167.419 150.068C167.209 149.714 167.105 149.328 167.105 148.909V141.59C167.105 141.171 167.209 140.79 167.419 140.448C167.629 140.095 167.905 139.813 168.247 139.603C168.6 139.394 168.987 139.289 169.406 139.289H176.724C177.144 139.289 177.525 139.394 177.867 139.603C178.22 139.813 178.501 140.095 178.711 140.448C178.921 140.79 179.026 141.171 179.026 141.59V148.909C179.026 149.328 178.921 149.714 178.711 150.068C178.501 150.41 178.22 150.686 177.867 150.895C177.525 151.105 177.144 151.21 176.724 151.21H169.406ZM169.489 149.008H176.608C176.664 149.008 176.713 148.991 176.757 148.958C176.802 148.914 176.824 148.864 176.824 148.809V141.69C176.824 141.634 176.802 141.59 176.757 141.557C176.713 141.513 176.664 141.491 176.608 141.491H169.489C169.434 141.491 169.384 141.513 169.34 141.557C169.307 141.59 169.29 141.634 169.29 141.69V148.809C169.29 148.864 169.307 148.914 169.34 148.958C169.384 148.991 169.434 149.008 169.489 149.008ZM171.856 138.295L172.635 135.265H174.82L174.075 138.295H171.856ZM190.353 151.21L186.76 146.922H189.625L192.737 150.597V151.21H190.353ZM180.849 151.21V139.305H190.452C190.872 139.305 191.258 139.41 191.611 139.62C191.965 139.83 192.246 140.111 192.456 140.464C192.666 140.807 192.77 141.187 192.77 141.607V144.819C192.77 145.238 192.666 145.625 192.456 145.978C192.246 146.331 191.965 146.613 191.611 146.822C191.258 147.021 190.872 147.12 190.452 147.12L183.035 147.137V151.21H180.849ZM183.233 144.918H190.353C190.408 144.918 190.458 144.902 190.502 144.869C190.546 144.836 190.568 144.791 190.568 144.736V141.69C190.568 141.634 190.546 141.59 190.502 141.557C190.458 141.513 190.408 141.491 190.353 141.491H183.233C183.178 141.491 183.129 141.513 183.084 141.557C183.051 141.59 183.035 141.634 183.035 141.69V144.736C183.035 144.791 183.051 144.836 183.084 144.869C183.129 144.902 183.178 144.918 183.233 144.918ZM194.28 151.21V139.289H196.449V151.21H194.28ZM200.322 151.21C199.902 151.21 199.516 151.105 199.163 150.895C198.82 150.686 198.544 150.41 198.335 150.068C198.125 149.714 198.02 149.328 198.02 148.909V141.59C198.02 141.171 198.125 140.79 198.335 140.448C198.544 140.095 198.82 139.813 199.163 139.603C199.516 139.394 199.902 139.289 200.322 139.289H207.64C208.059 139.289 208.44 139.394 208.782 139.603C209.136 139.813 209.417 140.095 209.627 140.448C209.837 140.79 209.941 141.171 209.941 141.59V148.909C209.941 149.328 209.837 149.714 209.627 150.068C209.417 150.41 209.136 150.686 208.782 150.895C208.44 151.105 208.059 151.21 207.64 151.21H200.322ZM200.404 149.008H207.524C207.579 149.008 207.629 148.991 207.673 148.958C207.717 148.914 207.739 148.864 207.739 148.809V141.69C207.739 141.634 207.717 141.59 207.673 141.557C207.629 141.513 207.579 141.491 207.524 141.491H200.404C200.349 141.491 200.3 141.513 200.255 141.557C200.222 141.59 200.206 141.634 200.206 141.69V148.809C200.206 148.864 200.222 148.914 200.255 148.958C200.3 148.991 200.349 149.008 200.404 149.008ZM216.859 151.21V139.289H226.462C226.882 139.289 227.268 139.394 227.621 139.603C227.974 139.813 228.256 140.095 228.466 140.448C228.675 140.79 228.78 141.171 228.78 141.59V148.909C228.78 149.328 228.675 149.714 228.466 150.068C228.256 150.41 227.974 150.686 227.621 150.895C227.268 151.105 226.882 151.21 226.462 151.21H216.859ZM219.227 149.008H226.363C226.418 149.008 226.468 148.991 226.512 148.958C226.556 148.914 226.578 148.864 226.578 148.809V141.69C226.578 141.634 226.556 141.59 226.512 141.557C226.468 141.513 226.418 141.491 226.363 141.491H219.227C219.171 141.491 219.122 141.513 219.078 141.557C219.044 141.59 219.028 141.634 219.028 141.69V148.809C219.028 148.864 219.044 148.914 219.078 148.958C219.122 148.991 219.171 149.008 219.227 149.008ZM230.667 151.21V139.289H241.645V141.491H232.87V144.14H239.923V146.359H232.87V149.008H241.645V151.21H230.667ZM248.545 151.21V139.391H263.645C264.148 139.391 264.596 139.513 264.99 139.758C265.384 140.002 265.697 140.321 265.928 140.715C266.172 141.109 266.295 141.551 266.295 142.04V151.21H264.114V142.101C264.114 141.965 264.06 141.85 263.951 141.755C263.856 141.646 263.741 141.592 263.605 141.592H259.06C258.911 141.592 258.789 141.646 258.694 141.755C258.598 141.85 258.551 141.965 258.551 142.101V151.21H256.33V142.101C256.33 141.965 256.275 141.85 256.167 141.755C256.072 141.646 255.956 141.592 255.82 141.592H251.256C251.12 141.592 251.004 141.646 250.909 141.755C250.814 141.85 250.766 141.965 250.766 142.101V151.21H248.545ZM268.326 151.21V141.59C268.326 141.171 268.43 140.79 268.64 140.448C268.85 140.095 269.126 139.813 269.468 139.603C269.821 139.394 270.208 139.289 270.627 139.289H277.929C278.348 139.289 278.735 139.394 279.088 139.603C279.441 139.813 279.723 140.095 279.932 140.448C280.142 140.79 280.247 141.171 280.247 141.59V151.21H278.045V147.203H270.511V151.21H268.326ZM270.511 145.018H278.045V141.69C278.045 141.634 278.023 141.59 277.979 141.557C277.934 141.513 277.885 141.491 277.83 141.491H270.71C270.655 141.491 270.605 141.513 270.561 141.557C270.528 141.59 270.511 141.634 270.511 141.69V145.018ZM286.405 151.21V141.491H281.537V139.289H293.459V141.491H288.607V151.21H286.405ZM294.73 151.21V139.289H305.708V141.491H296.932V144.14H303.986V146.359H296.932V149.008H305.708V151.21H294.73ZM307.547 151.21V139.391H322.647C323.15 139.391 323.598 139.513 323.992 139.758C324.386 140.002 324.699 140.321 324.929 140.715C325.174 141.109 325.296 141.551 325.296 142.04V151.21H323.116V142.101C323.116 141.965 323.061 141.85 322.953 141.755C322.858 141.646 322.742 141.592 322.606 141.592H318.062C317.913 141.592 317.79 141.646 317.695 141.755C317.6 141.85 317.553 141.965 317.553 142.101V151.21H315.331V142.101C315.331 141.965 315.277 141.85 315.168 141.755C315.073 141.646 314.958 141.592 314.822 141.592H310.257C310.121 141.592 310.006 141.646 309.911 141.755C309.816 141.85 309.768 141.965 309.768 142.101V151.21H307.547ZM327.327 151.21V141.59C327.327 141.171 327.432 140.79 327.642 140.448C327.852 140.095 328.128 139.813 328.47 139.603C328.823 139.394 329.209 139.289 329.629 139.289H336.93C337.35 139.289 337.736 139.394 338.089 139.603C338.443 139.813 338.724 140.095 338.934 140.448C339.144 140.79 339.249 141.171 339.249 141.59V151.21H337.046V147.203H329.513V151.21H327.327ZM329.513 145.018H337.046V141.69C337.046 141.634 337.024 141.59 336.98 141.557C336.936 141.513 336.886 141.491 336.831 141.491H329.711C329.656 141.491 329.607 141.513 329.562 141.557C329.529 141.59 329.513 141.634 329.513 141.69V145.018ZM332.079 138.295L332.857 135.265H335.043L334.298 138.295H332.079ZM345.407 151.21V141.491H340.539V139.289H352.46V141.491H347.609V151.21H345.407ZM353.467 151.21V139.289H355.636V151.21H353.467ZM359.541 151.21C359.122 151.21 358.735 151.105 358.382 150.895C358.04 150.686 357.764 150.41 357.554 150.068C357.344 149.714 357.24 149.328 357.24 148.909V141.59C357.24 141.171 357.344 140.79 357.554 140.448C357.764 140.095 358.04 139.813 358.382 139.603C358.735 139.394 359.122 139.289 359.541 139.289H369.128V141.491H360.005C359.828 141.491 359.685 141.541 359.574 141.64C359.475 141.739 359.425 141.883 359.425 142.07V148.428C359.425 148.605 359.475 148.749 359.574 148.859C359.685 148.958 359.828 149.008 360.005 149.008H369.128V151.21H359.541ZM370.887 151.21V141.59C370.887 141.171 370.992 140.79 371.202 140.448C371.412 140.095 371.687 139.813 372.03 139.603C372.383 139.394 372.769 139.289 373.189 139.289H380.49C380.91 139.289 381.296 139.394 381.649 139.603C382.003 139.813 382.284 140.095 382.494 140.448C382.704 140.79 382.808 141.171 382.808 141.59V151.21H380.606V147.203H373.073V151.21H370.887ZM373.073 145.018H380.606V141.69C380.606 141.634 380.584 141.59 380.54 141.557C380.496 141.513 380.446 141.491 380.391 141.491H373.271C373.216 141.491 373.167 141.513 373.122 141.557C373.089 141.59 373.073 141.634 373.073 141.69V145.018ZM392.057 151.21C391.638 151.21 391.252 151.105 390.898 150.895C390.556 150.686 390.28 150.41 390.071 150.068C389.861 149.714 389.756 149.328 389.756 148.909V141.59C389.756 141.171 389.861 140.79 390.071 140.448C390.28 140.095 390.556 139.813 390.898 139.603C391.252 139.394 391.638 139.289 392.057 139.289H401.644V141.491H392.521C392.344 141.491 392.201 141.541 392.091 141.64C391.991 141.739 391.942 141.883 391.942 142.07V148.428C391.942 148.605 391.991 148.749 392.091 148.859C392.201 148.958 392.344 149.008 392.521 149.008H401.644V151.21H392.057ZM405.639 151.21C405.219 151.21 404.833 151.105 404.48 150.895C404.138 150.686 403.862 150.41 403.652 150.068C403.442 149.714 403.337 149.328 403.337 148.909V141.59C403.337 141.171 403.442 140.79 403.652 140.448C403.862 140.095 404.138 139.813 404.48 139.603C404.833 139.394 405.219 139.289 405.639 139.289H412.957C413.377 139.289 413.757 139.394 414.1 139.603C414.453 139.813 414.734 140.095 414.944 140.448C415.154 140.79 415.259 141.171 415.259 141.59V148.909C415.259 149.328 415.154 149.714 414.944 150.068C414.734 150.41 414.453 150.686 414.1 150.895C413.757 151.105 413.377 151.21 412.957 151.21H405.639ZM405.722 149.008H412.841C412.896 149.008 412.946 148.991 412.99 148.958C413.034 148.914 413.057 148.864 413.057 148.809V141.69C413.057 141.634 413.034 141.59 412.99 141.557C412.946 141.513 412.896 141.491 412.841 141.491H405.722C405.666 141.491 405.617 141.513 405.573 141.557C405.54 141.59 405.523 141.634 405.523 141.69V148.809C405.523 148.864 405.54 148.914 405.573 148.958C405.617 148.991 405.666 149.008 405.722 149.008ZM417.255 151.21V139.391H432.355C432.858 139.391 433.306 139.513 433.7 139.758C434.094 140.002 434.407 140.321 434.638 140.715C434.882 141.109 435.005 141.551 435.005 142.04V151.21H432.824V142.101C432.824 141.965 432.77 141.85 432.661 141.755C432.566 141.646 432.451 141.592 432.315 141.592H427.77C427.621 141.592 427.499 141.646 427.404 141.755C427.308 141.85 427.261 141.965 427.261 142.101V151.21H425.04V142.101C425.04 141.965 424.985 141.85 424.877 141.755C424.782 141.646 424.666 141.592 424.53 141.592H419.966C419.83 141.592 419.714 141.646 419.619 141.755C419.524 141.85 419.476 141.965 419.476 142.101V151.21H417.255ZM437.003 151.21V139.305H446.606C447.025 139.305 447.412 139.41 447.765 139.62C448.118 139.83 448.399 140.111 448.609 140.464C448.819 140.807 448.924 141.187 448.924 141.607V144.819C448.924 145.238 448.819 145.625 448.609 145.978C448.399 146.331 448.118 146.613 447.765 146.822C447.412 147.021 447.025 147.12 446.606 147.12L439.188 147.137V151.21H437.003ZM439.387 144.918H446.506C446.562 144.918 446.611 144.902 446.655 144.869C446.7 144.836 446.722 144.791 446.722 144.736V141.69C446.722 141.634 446.7 141.59 446.655 141.557C446.611 141.513 446.562 141.491 446.506 141.491H439.387C439.332 141.491 439.282 141.513 439.238 141.557C439.205 141.59 439.188 141.634 439.188 141.69V144.736C439.188 144.791 439.205 144.836 439.238 144.869C439.282 144.902 439.332 144.918 439.387 144.918ZM452.368 151.21C451.949 151.21 451.562 151.105 451.209 150.895C450.867 150.686 450.591 150.41 450.381 150.068C450.171 149.714 450.067 149.328 450.067 148.909V139.289H452.252V148.809C452.252 148.864 452.269 148.914 452.302 148.958C452.346 148.991 452.396 149.008 452.451 149.008H459.57C459.626 149.008 459.675 148.991 459.719 148.958C459.764 148.914 459.786 148.864 459.786 148.809V139.289H461.988V148.909C461.988 149.328 461.883 149.714 461.673 150.068C461.463 150.41 461.182 150.686 460.829 150.895C460.487 151.105 460.106 151.21 459.686 151.21H452.368ZM468.083 151.21V141.491H463.215V139.289H475.136V141.491H470.285V151.21H468.083ZM476.408 151.21V141.59C476.408 141.171 476.513 140.79 476.722 140.448C476.932 140.095 477.208 139.813 477.55 139.603C477.903 139.394 478.29 139.289 478.709 139.289H486.011C486.43 139.289 486.817 139.394 487.17 139.603C487.523 139.813 487.805 140.095 488.014 140.448C488.224 140.79 488.329 141.171 488.329 141.59V151.21H486.127V147.203H478.593V151.21H476.408ZM478.593 145.018H486.127V141.69C486.127 141.634 486.105 141.59 486.061 141.557C486.017 141.513 485.967 141.491 485.912 141.491H478.792C478.737 141.491 478.687 141.513 478.643 141.557C478.61 141.59 478.593 141.634 478.593 141.69V145.018ZM492.517 151.21C492.098 151.21 491.711 151.105 491.358 150.895C491.016 150.686 490.74 150.41 490.53 150.068C490.32 149.714 490.216 149.328 490.216 148.909V141.59C490.216 141.171 490.32 140.79 490.53 140.448C490.74 140.095 491.016 139.813 491.358 139.603C491.711 139.394 492.098 139.289 492.517 139.289H502.104V141.491H492.981C492.804 141.491 492.661 141.541 492.55 141.64C492.451 141.739 492.401 141.883 492.401 142.07V148.428C492.401 148.605 492.451 148.749 492.55 148.859C492.661 148.958 492.804 149.008 492.981 149.008H502.104V151.21H492.517ZM503.598 151.21V139.289H505.767V151.21H503.598ZM509.64 151.21C509.22 151.21 508.834 151.105 508.481 150.895C508.138 150.686 507.862 150.41 507.653 150.068C507.443 149.714 507.338 149.328 507.338 148.909V141.59C507.338 141.171 507.443 140.79 507.653 140.448C507.862 140.095 508.138 139.813 508.481 139.603C508.834 139.394 509.22 139.289 509.64 139.289H516.958C517.377 139.289 517.758 139.394 518.1 139.603C518.454 139.813 518.735 140.095 518.945 140.448C519.154 140.79 519.259 141.171 519.259 141.59V148.909C519.259 149.328 519.154 149.714 518.945 150.068C518.735 150.41 518.454 150.686 518.1 150.895C517.758 151.105 517.377 151.21 516.958 151.21H509.64ZM509.722 149.008H516.842C516.897 149.008 516.947 148.991 516.991 148.958C517.035 148.914 517.057 148.864 517.057 148.809V141.69C517.057 141.634 517.035 141.59 516.991 141.557C516.947 141.513 516.897 141.491 516.842 141.491H509.722C509.667 141.491 509.617 141.513 509.573 141.557C509.54 141.59 509.524 141.634 509.524 141.69V148.809C509.524 148.864 509.54 148.914 509.573 148.958C509.617 148.991 509.667 149.008 509.722 149.008ZM521.256 151.21V139.391H530.63C531.119 139.391 531.56 139.513 531.954 139.758C532.362 140.002 532.681 140.321 532.912 140.715C533.157 141.109 533.279 141.551 533.279 142.04V151.21H531.078V142.101C531.078 141.965 531.024 141.85 530.915 141.755C530.82 141.646 530.705 141.592 530.569 141.592H523.966C523.83 141.592 523.708 141.646 523.599 141.755C523.504 141.85 523.457 141.965 523.457 142.101V151.21H521.256ZM535.305 151.21V141.59C535.305 141.171 535.41 140.79 535.62 140.448C535.829 140.095 536.105 139.813 536.447 139.603C536.801 139.394 537.187 139.289 537.606 139.289H544.908C545.328 139.289 545.714 139.394 546.067 139.603C546.42 139.813 546.702 140.095 546.912 140.448C547.121 140.79 547.226 141.171 547.226 141.59V151.21H545.024V147.203H537.49V151.21H535.305ZM537.49 145.018H545.024V141.69C545.024 141.634 545.002 141.59 544.958 141.557C544.914 141.513 544.864 141.491 544.809 141.491H537.689C537.634 141.491 537.584 141.513 537.54 141.557C537.507 141.59 537.49 141.634 537.49 141.69V145.018ZM549.129 151.21V139.272H551.315V149.008H561.051V151.21H549.129Z" fill="black"/>
<path d="M81.2647 111.86V56.7621H87.4546V105.67H136.286V111.86H81.2647ZM140.894 111.86V66.0088C140.894 64.3276 141.301 62.7992 142.116 61.4237C142.932 59.9972 144.027 58.8764 145.402 58.0613C146.829 57.2461 148.383 56.8386 150.064 56.8386H186.745C188.426 56.8386 189.954 57.2461 191.33 58.0613C192.756 58.8764 193.877 59.9972 194.692 61.4237C195.507 62.7992 195.915 64.3276 195.915 66.0088V111.86H189.725V91.7618H147.084V111.86H140.894ZM147.084 85.5719H189.725V66.0088C189.725 65.1936 189.419 64.5059 188.808 63.9455C188.248 63.3341 187.56 63.0284 186.745 63.0284H150.064C149.249 63.0284 148.536 63.3341 147.924 63.9455C147.364 64.5059 147.084 65.1936 147.084 66.0088V85.5719ZM433.806 111.86V66.0088C433.806 64.3276 434.214 62.7992 435.029 61.4237C435.844 59.9972 436.939 58.8764 438.315 58.0613C439.741 57.2461 441.295 56.8386 442.976 56.8386H479.657C481.338 56.8386 482.867 57.2461 484.242 58.0613C485.669 58.8764 486.789 59.9972 487.605 61.4237C488.42 62.7992 488.827 64.3276 488.827 66.0088V111.86H482.637V91.7618H439.996V111.86H433.806ZM439.996 85.5719H482.637V66.0088C482.637 65.1936 482.332 64.5059 481.72 63.9455C481.16 63.3341 480.472 63.0284 479.657 63.0284H442.976C442.161 63.0284 441.448 63.3341 440.837 63.9455C440.276 64.5059 439.996 65.1936 439.996 66.0088V85.5719ZM506.704 111.86C505.023 111.86 503.469 111.452 502.043 110.637C500.667 109.822 499.572 108.727 498.757 107.351C497.942 105.925 497.534 104.371 497.534 102.69V66.0088C497.534 64.3276 497.942 62.7992 498.757 61.4237C499.572 59.9972 500.667 58.8764 502.043 58.0613C503.469 57.2461 505.023 56.8386 506.704 56.8386H552.403V63.0284H506.704C505.889 63.0284 505.176 63.3341 504.565 63.9455C504.004 64.5059 503.724 65.1936 503.724 66.0088V102.69C503.724 103.505 504.004 104.218 504.565 104.829C505.176 105.39 505.889 105.67 506.704 105.67H552.403V111.86H506.704Z" fill="black"/>
<path d="M131 175.515C131 175.515 191.033 189.724 216.081 130.228C241.129 70.7324 247.173 32 263.877 32C280.581 32 289.233 89.4966 306.682 89.4966C318.821 89.4966 330.832 51.8099 342.374 54.5915C354.789 57.5834 365.895 146.061 384.791 130.228C401.861 115.925 421 42.6241 421 42.6241" stroke="url(#paint3_linear_3_165)" stroke-width="1.27364"/>
<path d="M217.242 133.185C217.242 131.778 216.069 130.637 214.621 130.637C213.174 130.637 212 131.778 212 133.185C212 134.592 213.174 135.732 214.621 135.732C216.069 135.732 217.242 134.592 217.242 133.185Z" fill="#FF0000"/>
<ellipse cx="2.62117" cy="2.54777" rx="2.62117" ry="2.54777" transform="matrix(1 0 0 -1 261.482 35.0956)" fill="#FF0000"/>
<ellipse cx="2.62117" cy="2.54777" rx="2.62117" ry="2.54777" transform="matrix(1 0 0 -1 360.758 108.981)" fill="#FF0000"/>
</g>
<defs>
<radialGradient id="paint0_radial_3_165" cx="0" cy="0" r="1" gradientUnits="userSpaceOnUse" gradientTransform="translate(317.137 100) rotate(90) scale(100 199.962)">
<stop offset="0.661458" stop-color="white" stop-opacity="0"/>
<stop offset="1" stop-color="white"/>
</radialGradient>
<linearGradient id="paint1_linear_3_165" x1="61.1347" y1="126.115" x2="560.402" y2="127.369" gradientUnits="userSpaceOnUse">
<stop stop-opacity="0"/>
<stop offset="0.496911"/>
<stop offset="1" stop-opacity="0.25"/>
<stop offset="1" stop-opacity="0"/>
</linearGradient>
<linearGradient id="paint2_linear_3_165" x1="222.114" y1="15.2865" x2="222.114" y2="175.159" gradientUnits="userSpaceOnUse">
<stop offset="0.0104167" stop-opacity="0"/>
<stop offset="0.489583"/>
<stop offset="1" stop-opacity="0"/>
</linearGradient>
<linearGradient id="paint3_linear_3_165" x1="130.809" y1="32.1525" x2="427.725" y2="32.1526" gradientUnits="userSpaceOnUse">
<stop stop-opacity="0"/>
<stop offset="0.25"/>
<stop offset="0.869792"/>
<stop offset="1" stop-color="white" stop-opacity="0"/>
</linearGradient>
<clipPath id="clip0_3_165">
<rect width="633" height="199.962" fill="white"/>
</clipPath>
<clipPath id="clip1_3_165">
<rect width="399.924" height="200" fill="white" transform="translate(117.175)"/>
</clipPath>
</defs>
</svg>
