<svg width="200" height="200" viewBox="0 0 200 200" fill="none" xmlns="http://www.w3.org/2000/svg">
<g clip-path="url(#clip0_6_832)">
<rect width="200" height="200" fill="#0d7797"/>
<path d="M100 0.00439453C44.7773 0.00439453 0 44.7749 0 100.004C0 155.234 44.7729 200.004 100 200.004C155.231 200.004 200 155.234 200 100.004C200 44.7749 155.231 0.00439453 100 0.00439453ZM100 29.9056C118.273 29.9056 133.08 44.7178 133.08 62.9827C133.08 81.2519 118.273 96.0597 100 96.0597C81.7359 96.0597 66.9288 81.2519 66.9288 62.9827C66.9288 44.7178 81.7359 29.9056 100 29.9056ZM99.978 173.859C81.7535 173.859 65.0619 167.222 52.1875 156.235C49.0512 153.56 47.2415 149.638 47.2415 145.522C47.2415 126.998 62.2332 112.172 80.7608 112.172H119.248C137.78 112.172 152.715 126.998 152.715 145.522C152.715 149.642 150.914 153.556 147.773 156.231C134.903 167.222 118.207 173.859 99.978 173.859Z" fill="white"/>
</g>
<defs>
<clipPath id="clip0_6_832">
<rect width="200" height="200" fill="white"/>
</clipPath>
</defs>
</svg>
