<svg width="633" height="200" viewBox="0 0 633 200" fill="none" xmlns="http://www.w3.org/2000/svg">
<g clip-path="url(#clip0_10_658)">
<rect width="633" height="199.962" fill="black"/>
<g clip-path="url(#clip1_10_658)">
<path d="M517 0H117V200H517V0Z" fill="black"/>
<path d="M121 0V200" stroke="#939393" stroke-opacity="0.4" stroke-width="0.4"/>
<path d="M125 0V200" stroke="#939393" stroke-opacity="0.4" stroke-width="0.4"/>
<path d="M129 0V200" stroke="#939393" stroke-opacity="0.4" stroke-width="0.4"/>
<path d="M133 0V200" stroke="#939393" stroke-opacity="0.4" stroke-width="0.4"/>
<path d="M137 0V200" stroke="#939393" stroke-opacity="0.4" stroke-width="0.4"/>
<path d="M141 0V200" stroke="#939393" stroke-opacity="0.4" stroke-width="0.4"/>
<path d="M145 0V200" stroke="#939393" stroke-opacity="0.4" stroke-width="0.4"/>
<path d="M149 0V200" stroke="#939393" stroke-opacity="0.4" stroke-width="0.4"/>
<path d="M153 0V200" stroke="#939393" stroke-opacity="0.4" stroke-width="0.4"/>
<path d="M157 0V200" stroke="#939393" stroke-opacity="0.4" stroke-width="0.4"/>
<path d="M161 0V200" stroke="#939393" stroke-opacity="0.4" stroke-width="0.4"/>
<path d="M165 0V200" stroke="#939393" stroke-opacity="0.4" stroke-width="0.4"/>
<path d="M169 0V200" stroke="#939393" stroke-opacity="0.4" stroke-width="0.4"/>
<path d="M173 0V200" stroke="#939393" stroke-opacity="0.4" stroke-width="0.4"/>
<path d="M177 0V200" stroke="#939393" stroke-opacity="0.4" stroke-width="0.4"/>
<path d="M181 0V200" stroke="#939393" stroke-opacity="0.4" stroke-width="0.4"/>
<path d="M185 0V200" stroke="#939393" stroke-opacity="0.4" stroke-width="0.4"/>
<path d="M189 0V200" stroke="#939393" stroke-opacity="0.4" stroke-width="0.4"/>
<path d="M193 0V200" stroke="#939393" stroke-opacity="0.4" stroke-width="0.4"/>
<path d="M197 0V200" stroke="#939393" stroke-opacity="0.4" stroke-width="0.4"/>
<path d="M201 0V200" stroke="#939393" stroke-opacity="0.4" stroke-width="0.4"/>
<path d="M205 0V200" stroke="#939393" stroke-opacity="0.4" stroke-width="0.4"/>
<path d="M209 0V200" stroke="#939393" stroke-opacity="0.4" stroke-width="0.4"/>
<path d="M213 0V200" stroke="#939393" stroke-opacity="0.4" stroke-width="0.4"/>
<path d="M217 0V200" stroke="#939393" stroke-opacity="0.4" stroke-width="0.4"/>
<path d="M221 0V200" stroke="#939393" stroke-opacity="0.4" stroke-width="0.4"/>
<path d="M225 0V200" stroke="#939393" stroke-opacity="0.4" stroke-width="0.4"/>
<path d="M229 0V200" stroke="#939393" stroke-opacity="0.4" stroke-width="0.4"/>
<path d="M233 0V200" stroke="#939393" stroke-opacity="0.4" stroke-width="0.4"/>
<path d="M237 0V200" stroke="#939393" stroke-opacity="0.4" stroke-width="0.4"/>
<path d="M241 0V200" stroke="#939393" stroke-opacity="0.4" stroke-width="0.4"/>
<path d="M245 0V200" stroke="#939393" stroke-opacity="0.4" stroke-width="0.4"/>
<path d="M249 0V200" stroke="#939393" stroke-opacity="0.4" stroke-width="0.4"/>
<path d="M253 0V200" stroke="#939393" stroke-opacity="0.4" stroke-width="0.4"/>
<path d="M257 0V200" stroke="#939393" stroke-opacity="0.4" stroke-width="0.4"/>
<path d="M261 0V200" stroke="#939393" stroke-opacity="0.4" stroke-width="0.4"/>
<path d="M265 0V200" stroke="#939393" stroke-opacity="0.4" stroke-width="0.4"/>
<path d="M269 0V200" stroke="#939393" stroke-opacity="0.4" stroke-width="0.4"/>
<path d="M273 0V200" stroke="#939393" stroke-opacity="0.4" stroke-width="0.4"/>
<path d="M277 0V200" stroke="#939393" stroke-opacity="0.4" stroke-width="0.4"/>
<path d="M281 0V200" stroke="#939393" stroke-opacity="0.4" stroke-width="0.4"/>
<path d="M285 0V200" stroke="#939393" stroke-opacity="0.4" stroke-width="0.4"/>
<path d="M289 0V200" stroke="#939393" stroke-opacity="0.4" stroke-width="0.4"/>
<path d="M293 0V200" stroke="#939393" stroke-opacity="0.4" stroke-width="0.4"/>
<path d="M297 0V200" stroke="#939393" stroke-opacity="0.4" stroke-width="0.4"/>
<path d="M301 0V200" stroke="#939393" stroke-opacity="0.4" stroke-width="0.4"/>
<path d="M305 0V200" stroke="#939393" stroke-opacity="0.4" stroke-width="0.4"/>
<path d="M309 0V200" stroke="#939393" stroke-opacity="0.4" stroke-width="0.4"/>
<path d="M313 0V200" stroke="#939393" stroke-opacity="0.4" stroke-width="0.4"/>
<path d="M317 0V200" stroke="#939393" stroke-opacity="0.4" stroke-width="0.4"/>
<path d="M321 0V200" stroke="#939393" stroke-opacity="0.4" stroke-width="0.4"/>
<path d="M325 0V200" stroke="#939393" stroke-opacity="0.4" stroke-width="0.4"/>
<path d="M329 0V200" stroke="#939393" stroke-opacity="0.4" stroke-width="0.4"/>
<path d="M333 0V200" stroke="#939393" stroke-opacity="0.4" stroke-width="0.4"/>
<path d="M337 0V200" stroke="#939393" stroke-opacity="0.4" stroke-width="0.4"/>
<path d="M341 0V200" stroke="#939393" stroke-opacity="0.4" stroke-width="0.4"/>
<path d="M345 0V200" stroke="#939393" stroke-opacity="0.4" stroke-width="0.4"/>
<path d="M349 0V200" stroke="#939393" stroke-opacity="0.4" stroke-width="0.4"/>
<path d="M353 0V200" stroke="#939393" stroke-opacity="0.4" stroke-width="0.4"/>
<path d="M357 0V200" stroke="#939393" stroke-opacity="0.4" stroke-width="0.4"/>
<path d="M361 0V200" stroke="#939393" stroke-opacity="0.4" stroke-width="0.4"/>
<path d="M365 0V200" stroke="#939393" stroke-opacity="0.4" stroke-width="0.4"/>
<path d="M369 0V200" stroke="#939393" stroke-opacity="0.4" stroke-width="0.4"/>
<path d="M373 0V200" stroke="#939393" stroke-opacity="0.4" stroke-width="0.4"/>
<path d="M377 0V200" stroke="#939393" stroke-opacity="0.4" stroke-width="0.4"/>
<path d="M381 0V200" stroke="#939393" stroke-opacity="0.4" stroke-width="0.4"/>
<path d="M385 0V200" stroke="#939393" stroke-opacity="0.4" stroke-width="0.4"/>
<path d="M389 0V200" stroke="#939393" stroke-opacity="0.4" stroke-width="0.4"/>
<path d="M393 0V200" stroke="#939393" stroke-opacity="0.4" stroke-width="0.4"/>
<path d="M397 0V200" stroke="#939393" stroke-opacity="0.4" stroke-width="0.4"/>
<path d="M401 0V200" stroke="#939393" stroke-opacity="0.4" stroke-width="0.4"/>
<path d="M405 0V200" stroke="#939393" stroke-opacity="0.4" stroke-width="0.4"/>
<path d="M409 0V200" stroke="#939393" stroke-opacity="0.4" stroke-width="0.4"/>
<path d="M413 0V200" stroke="#939393" stroke-opacity="0.4" stroke-width="0.4"/>
<path d="M417 0V200" stroke="#939393" stroke-opacity="0.4" stroke-width="0.4"/>
<path d="M421 0V200" stroke="#939393" stroke-opacity="0.4" stroke-width="0.4"/>
<path d="M425 0V200" stroke="#939393" stroke-opacity="0.4" stroke-width="0.4"/>
<path d="M429 0V200" stroke="#939393" stroke-opacity="0.4" stroke-width="0.4"/>
<path d="M433 0V200" stroke="#939393" stroke-opacity="0.4" stroke-width="0.4"/>
<path d="M437 0V200" stroke="#939393" stroke-opacity="0.4" stroke-width="0.4"/>
<path d="M441 0V200" stroke="#939393" stroke-opacity="0.4" stroke-width="0.4"/>
<path d="M445 0V200" stroke="#939393" stroke-opacity="0.4" stroke-width="0.4"/>
<path d="M449 0V200" stroke="#939393" stroke-opacity="0.4" stroke-width="0.4"/>
<path d="M453 0V200" stroke="#939393" stroke-opacity="0.4" stroke-width="0.4"/>
<path d="M457 0V200" stroke="#939393" stroke-opacity="0.4" stroke-width="0.4"/>
<path d="M461 0V200" stroke="#939393" stroke-opacity="0.4" stroke-width="0.4"/>
<path d="M465 0V200" stroke="#939393" stroke-opacity="0.4" stroke-width="0.4"/>
<path d="M469 0V200" stroke="#939393" stroke-opacity="0.4" stroke-width="0.4"/>
<path d="M473 0V200" stroke="#939393" stroke-opacity="0.4" stroke-width="0.4"/>
<path d="M477 0V200" stroke="#939393" stroke-opacity="0.4" stroke-width="0.4"/>
<path d="M481 0V200" stroke="#939393" stroke-opacity="0.4" stroke-width="0.4"/>
<path d="M485 0V200" stroke="#939393" stroke-opacity="0.4" stroke-width="0.4"/>
<path d="M489 0V200" stroke="#939393" stroke-opacity="0.4" stroke-width="0.4"/>
<path d="M493 0V200" stroke="#939393" stroke-opacity="0.4" stroke-width="0.4"/>
<path d="M497 0V200" stroke="#939393" stroke-opacity="0.4" stroke-width="0.4"/>
<path d="M501 0V200" stroke="#939393" stroke-opacity="0.4" stroke-width="0.4"/>
<path d="M505 0V200" stroke="#939393" stroke-opacity="0.4" stroke-width="0.4"/>
<path d="M509 0V200" stroke="#939393" stroke-opacity="0.4" stroke-width="0.4"/>
<path d="M513 0V200" stroke="#939393" stroke-opacity="0.4" stroke-width="0.4"/>
<path d="M117 4H517" stroke="#939393" stroke-opacity="0.4" stroke-width="0.4"/>
<path d="M117 8H517" stroke="#939393" stroke-opacity="0.4" stroke-width="0.4"/>
<path d="M117 12H517" stroke="#939393" stroke-opacity="0.4" stroke-width="0.4"/>
<path d="M117 16H517" stroke="#939393" stroke-opacity="0.4" stroke-width="0.4"/>
<path d="M117 20H517" stroke="#939393" stroke-opacity="0.4" stroke-width="0.4"/>
<path d="M117 24H517" stroke="#939393" stroke-opacity="0.4" stroke-width="0.4"/>
<path d="M117 28H517" stroke="#939393" stroke-opacity="0.4" stroke-width="0.4"/>
<path d="M117 32H517" stroke="#939393" stroke-opacity="0.4" stroke-width="0.4"/>
<path d="M117 36H517" stroke="#939393" stroke-opacity="0.4" stroke-width="0.4"/>
<path d="M117 40H517" stroke="#939393" stroke-opacity="0.4" stroke-width="0.4"/>
<path d="M117 44H517" stroke="#939393" stroke-opacity="0.4" stroke-width="0.4"/>
<path d="M117 48H517" stroke="#939393" stroke-opacity="0.4" stroke-width="0.4"/>
<path d="M117 52H517" stroke="#939393" stroke-opacity="0.4" stroke-width="0.4"/>
<path d="M117 56H517" stroke="#939393" stroke-opacity="0.4" stroke-width="0.4"/>
<path d="M117 60H517" stroke="#939393" stroke-opacity="0.4" stroke-width="0.4"/>
<path d="M117 64H517" stroke="#939393" stroke-opacity="0.4" stroke-width="0.4"/>
<path d="M117 68H517" stroke="#939393" stroke-opacity="0.4" stroke-width="0.4"/>
<path d="M117 72H517" stroke="#939393" stroke-opacity="0.4" stroke-width="0.4"/>
<path d="M117 76H517" stroke="#939393" stroke-opacity="0.4" stroke-width="0.4"/>
<path d="M117 80H517" stroke="#939393" stroke-opacity="0.4" stroke-width="0.4"/>
<path d="M117 84H517" stroke="#939393" stroke-opacity="0.4" stroke-width="0.4"/>
<path d="M117 88H517" stroke="#939393" stroke-opacity="0.4" stroke-width="0.4"/>
<path d="M117 92H517" stroke="#939393" stroke-opacity="0.4" stroke-width="0.4"/>
<path d="M117 96H517" stroke="#939393" stroke-opacity="0.4" stroke-width="0.4"/>
<path d="M117 100H517" stroke="#939393" stroke-opacity="0.4" stroke-width="0.4"/>
<path d="M117 104H517" stroke="#939393" stroke-opacity="0.4" stroke-width="0.4"/>
<path d="M117 108H517" stroke="#939393" stroke-opacity="0.4" stroke-width="0.4"/>
<path d="M117 112H517" stroke="#939393" stroke-opacity="0.4" stroke-width="0.4"/>
<path d="M117 116H517" stroke="#939393" stroke-opacity="0.4" stroke-width="0.4"/>
<path d="M117 120H517" stroke="#939393" stroke-opacity="0.4" stroke-width="0.4"/>
<path d="M117 124H517" stroke="#939393" stroke-opacity="0.4" stroke-width="0.4"/>
<path d="M117 128H517" stroke="#939393" stroke-opacity="0.4" stroke-width="0.4"/>
<path d="M117 132H517" stroke="#939393" stroke-opacity="0.4" stroke-width="0.4"/>
<path d="M117 136H517" stroke="#939393" stroke-opacity="0.4" stroke-width="0.4"/>
<path d="M117 140H517" stroke="#939393" stroke-opacity="0.4" stroke-width="0.4"/>
<path d="M117 144H517" stroke="#939393" stroke-opacity="0.4" stroke-width="0.4"/>
<path d="M117 148H517" stroke="#939393" stroke-opacity="0.4" stroke-width="0.4"/>
<path d="M117 152H517" stroke="#939393" stroke-opacity="0.4" stroke-width="0.4"/>
<path d="M117 156H517" stroke="#939393" stroke-opacity="0.4" stroke-width="0.4"/>
<path d="M117 160H517" stroke="#939393" stroke-opacity="0.4" stroke-width="0.4"/>
<path d="M117 164H517" stroke="#939393" stroke-opacity="0.4" stroke-width="0.4"/>
<path d="M117 168H517" stroke="#939393" stroke-opacity="0.4" stroke-width="0.4"/>
<path d="M117 172H517" stroke="#939393" stroke-opacity="0.4" stroke-width="0.4"/>
<path d="M117 176H517" stroke="#939393" stroke-opacity="0.4" stroke-width="0.4"/>
<path d="M117 180H517" stroke="#939393" stroke-opacity="0.4" stroke-width="0.4"/>
<path d="M117 184H517" stroke="#939393" stroke-opacity="0.4" stroke-width="0.4"/>
<path d="M117 188H517" stroke="#939393" stroke-opacity="0.4" stroke-width="0.4"/>
<path d="M117 192H517" stroke="#939393" stroke-opacity="0.4" stroke-width="0.4"/>
<path d="M117 196H517" stroke="#939393" stroke-opacity="0.4" stroke-width="0.4"/>
<path d="M517 0H117V200H517V0Z" fill="url(#paint0_radial_10_658)"/>
</g>
<path d="M61.1348 130.807L310.769 131.434L560.402 132.061" stroke="url(#paint1_linear_10_658)" stroke-width="1.27364"/>
<path d="M221.614 179.842V20" stroke="url(#paint2_linear_10_658)" stroke-width="1.27364"/>
<path d="M72.8551 155.901V143.963H75.0407V153.699H84.7764V155.901H72.8551ZM85.7748 155.901V146.282C85.7748 145.862 85.8796 145.481 86.0893 145.139C86.2991 144.786 86.575 144.504 86.9172 144.295C87.2704 144.085 87.6568 143.98 88.0762 143.98H95.378C95.7975 143.98 96.1838 144.085 96.537 144.295C96.8902 144.504 97.1717 144.786 97.3814 145.139C97.5912 145.481 97.696 145.862 97.696 146.282V155.901H95.4939V151.894H87.9603V155.901H85.7748ZM87.9603 149.709H95.4939V146.381C95.4939 146.326 95.4718 146.282 95.4277 146.248C95.3835 146.204 95.3338 146.182 95.2787 146.182H88.159C88.1038 146.182 88.0541 146.204 88.01 146.248C87.9769 146.282 87.9603 146.326 87.9603 146.381V149.709ZM99.6322 155.901V143.98H108.772C109.191 143.98 109.572 144.085 109.914 144.295C110.268 144.504 110.549 144.786 110.759 145.139C110.968 145.481 111.073 145.862 111.073 146.282V148.616C111.073 148.76 111.062 148.898 111.04 149.03C111.018 149.162 110.979 149.289 110.924 149.411C111.112 149.665 111.261 149.93 111.371 150.206C111.493 150.482 111.553 150.757 111.553 151.033V153.6C111.553 154.019 111.449 154.406 111.239 154.759C111.029 155.101 110.748 155.377 110.394 155.587C110.041 155.796 109.655 155.901 109.235 155.901H99.6322ZM102.016 153.699H109.136C109.191 153.699 109.241 153.683 109.285 153.65C109.329 153.605 109.351 153.556 109.351 153.5V151.133C109.351 151.078 109.329 151.033 109.285 151C109.241 150.956 109.191 150.934 109.136 150.934H102.016C101.961 150.934 101.912 150.956 101.867 151C101.834 151.033 101.818 151.078 101.818 151.133V153.5C101.818 153.556 101.834 153.605 101.867 153.65C101.912 153.683 101.961 153.699 102.016 153.699ZM102.016 148.732H108.672C108.728 148.732 108.772 148.715 108.805 148.682C108.838 148.638 108.855 148.588 108.855 148.533V146.381C108.855 146.326 108.838 146.282 108.805 146.248C108.772 146.204 108.728 146.182 108.672 146.182H102.016C101.961 146.182 101.912 146.204 101.867 146.248C101.834 146.282 101.818 146.326 101.818 146.381V148.533C101.818 148.588 101.834 148.638 101.867 148.682C101.912 148.715 101.961 148.732 102.016 148.732ZM115.627 155.901C115.208 155.901 114.821 155.796 114.468 155.587C114.126 155.377 113.85 155.101 113.64 154.759C113.43 154.406 113.326 154.019 113.326 153.6V146.282C113.326 145.862 113.43 145.481 113.64 145.139C113.85 144.786 114.126 144.504 114.468 144.295C114.821 144.085 115.208 143.98 115.627 143.98H122.945C123.365 143.98 123.746 144.085 124.088 144.295C124.441 144.504 124.723 144.786 124.932 145.139C125.142 145.481 125.247 145.862 125.247 146.282V153.6C125.247 154.019 125.142 154.406 124.932 154.759C124.723 155.101 124.441 155.377 124.088 155.587C123.746 155.796 123.365 155.901 122.945 155.901H115.627ZM115.71 153.699H122.83C122.885 153.699 122.934 153.683 122.979 153.65C123.023 153.605 123.045 153.556 123.045 153.5V146.381C123.045 146.326 123.023 146.282 122.979 146.248C122.934 146.204 122.885 146.182 122.83 146.182H115.71C115.655 146.182 115.605 146.204 115.561 146.248C115.528 146.282 115.511 146.326 115.511 146.381V153.5C115.511 153.556 115.528 153.605 115.561 153.65C115.605 153.683 115.655 153.699 115.71 153.699ZM136.574 155.901L132.981 151.613H135.846L138.958 155.289V155.901H136.574ZM127.07 155.901V143.997H136.674C137.093 143.997 137.479 144.101 137.833 144.311C138.186 144.521 138.467 144.802 138.677 145.156C138.887 145.498 138.992 145.879 138.992 146.298V149.51C138.992 149.93 138.887 150.316 138.677 150.669C138.467 151.022 138.186 151.304 137.833 151.514C137.479 151.712 137.093 151.812 136.674 151.812L129.256 151.828V155.901H127.07ZM129.455 149.61H136.574C136.629 149.61 136.679 149.593 136.723 149.56C136.767 149.527 136.789 149.483 136.789 149.427V146.381C136.789 146.326 136.767 146.282 136.723 146.248C136.679 146.204 136.629 146.182 136.574 146.182H129.455C129.399 146.182 129.35 146.204 129.306 146.248C129.272 146.282 129.256 146.326 129.256 146.381V149.427C129.256 149.483 129.272 149.527 129.306 149.56C129.35 149.593 129.399 149.61 129.455 149.61ZM140.766 155.901V146.282C140.766 145.862 140.871 145.481 141.081 145.139C141.291 144.786 141.567 144.504 141.909 144.295C142.262 144.085 142.648 143.98 143.068 143.98H150.37C150.789 143.98 151.175 144.085 151.529 144.295C151.882 144.504 152.163 144.786 152.373 145.139C152.583 145.481 152.688 145.862 152.688 146.282V155.901H150.486V151.894H142.952V155.901H140.766ZM142.952 149.709H150.486V146.381C150.486 146.326 150.463 146.282 150.419 146.248C150.375 146.204 150.326 146.182 150.27 146.182H143.151C143.095 146.182 143.046 146.204 143.002 146.248C142.969 146.282 142.952 146.326 142.952 146.381V149.709ZM158.846 155.901V146.182H153.978V143.98H165.899V146.182H161.048V155.901H158.846ZM169.406 155.901C168.987 155.901 168.6 155.796 168.247 155.587C167.905 155.377 167.629 155.101 167.419 154.759C167.209 154.406 167.105 154.019 167.105 153.6V146.282C167.105 145.862 167.209 145.481 167.419 145.139C167.629 144.786 167.905 144.504 168.247 144.295C168.6 144.085 168.987 143.98 169.406 143.98H176.724C177.144 143.98 177.525 144.085 177.867 144.295C178.22 144.504 178.502 144.786 178.711 145.139C178.921 145.481 179.026 145.862 179.026 146.282V153.6C179.026 154.019 178.921 154.406 178.711 154.759C178.502 155.101 178.22 155.377 177.867 155.587C177.525 155.796 177.144 155.901 176.724 155.901H169.406ZM169.489 153.699H176.608C176.664 153.699 176.713 153.683 176.757 153.65C176.802 153.605 176.824 153.556 176.824 153.5V146.381C176.824 146.326 176.802 146.282 176.757 146.248C176.713 146.204 176.664 146.182 176.608 146.182H169.489C169.434 146.182 169.384 146.204 169.34 146.248C169.307 146.282 169.29 146.326 169.29 146.381V153.5C169.29 153.556 169.307 153.605 169.34 153.65C169.384 153.683 169.434 153.699 169.489 153.699ZM171.857 142.987L172.635 139.957H174.82L174.075 142.987H171.857ZM190.353 155.901L186.76 151.613H189.625L192.737 155.289V155.901H190.353ZM180.849 155.901V143.997H190.452C190.872 143.997 191.258 144.101 191.611 144.311C191.965 144.521 192.246 144.802 192.456 145.156C192.666 145.498 192.77 145.879 192.77 146.298V149.51C192.77 149.93 192.666 150.316 192.456 150.669C192.246 151.022 191.965 151.304 191.611 151.514C191.258 151.712 190.872 151.812 190.452 151.812L183.035 151.828V155.901H180.849ZM183.233 149.61H190.353C190.408 149.61 190.458 149.593 190.502 149.56C190.546 149.527 190.568 149.483 190.568 149.427V146.381C190.568 146.326 190.546 146.282 190.502 146.248C190.458 146.204 190.408 146.182 190.353 146.182H183.233C183.178 146.182 183.129 146.204 183.084 146.248C183.051 146.282 183.035 146.326 183.035 146.381V149.427C183.035 149.483 183.051 149.527 183.084 149.56C183.129 149.593 183.178 149.61 183.233 149.61ZM194.28 155.901V143.98H196.449V155.901H194.28ZM200.322 155.901C199.902 155.901 199.516 155.796 199.163 155.587C198.82 155.377 198.545 155.101 198.335 154.759C198.125 154.406 198.02 154.019 198.02 153.6V146.282C198.02 145.862 198.125 145.481 198.335 145.139C198.545 144.786 198.82 144.504 199.163 144.295C199.516 144.085 199.902 143.98 200.322 143.98H207.64C208.059 143.98 208.44 144.085 208.782 144.295C209.136 144.504 209.417 144.786 209.627 145.139C209.837 145.481 209.941 145.862 209.941 146.282V153.6C209.941 154.019 209.837 154.406 209.627 154.759C209.417 155.101 209.136 155.377 208.782 155.587C208.44 155.796 208.059 155.901 207.64 155.901H200.322ZM200.404 153.699H207.524C207.579 153.699 207.629 153.683 207.673 153.65C207.717 153.605 207.739 153.556 207.739 153.5V146.381C207.739 146.326 207.717 146.282 207.673 146.248C207.629 146.204 207.579 146.182 207.524 146.182H200.404C200.349 146.182 200.3 146.204 200.255 146.248C200.222 146.282 200.206 146.326 200.206 146.381V153.5C200.206 153.556 200.222 153.605 200.255 153.65C200.3 153.683 200.349 153.699 200.404 153.699ZM216.859 155.901V143.98H226.462C226.882 143.98 227.268 144.085 227.621 144.295C227.974 144.504 228.256 144.786 228.466 145.139C228.675 145.481 228.78 145.862 228.78 146.282V153.6C228.78 154.019 228.675 154.406 228.466 154.759C228.256 155.101 227.974 155.377 227.621 155.587C227.268 155.796 226.882 155.901 226.462 155.901H216.859ZM219.227 153.699H226.363C226.418 153.699 226.468 153.683 226.512 153.65C226.556 153.605 226.578 153.556 226.578 153.5V146.381C226.578 146.326 226.556 146.282 226.512 146.248C226.468 146.204 226.418 146.182 226.363 146.182H219.227C219.171 146.182 219.122 146.204 219.078 146.248C219.045 146.282 219.028 146.326 219.028 146.381V153.5C219.028 153.556 219.045 153.605 219.078 153.65C219.122 153.683 219.171 153.699 219.227 153.699ZM230.667 155.901V143.98H241.645V146.182H232.87V148.831H239.923V151.05H232.87V153.699H241.645V155.901H230.667ZM248.545 155.901V144.082H263.646C264.148 144.082 264.597 144.204 264.99 144.449C265.384 144.693 265.697 145.013 265.928 145.407C266.172 145.8 266.295 146.242 266.295 146.731V155.901H264.114V146.792C264.114 146.656 264.06 146.541 263.951 146.446C263.856 146.337 263.741 146.283 263.605 146.283H259.06C258.911 146.283 258.789 146.337 258.694 146.446C258.599 146.541 258.551 146.656 258.551 146.792V155.901H256.33V146.792C256.33 146.656 256.275 146.541 256.167 146.446C256.072 146.337 255.956 146.283 255.82 146.283H251.256C251.12 146.283 251.004 146.337 250.909 146.446C250.814 146.541 250.766 146.656 250.766 146.792V155.901H248.545ZM268.326 155.901V146.282C268.326 145.862 268.431 145.481 268.64 145.139C268.85 144.786 269.126 144.504 269.468 144.295C269.821 144.085 270.208 143.98 270.627 143.98H277.929C278.348 143.98 278.735 144.085 279.088 144.295C279.441 144.504 279.723 144.786 279.932 145.139C280.142 145.481 280.247 145.862 280.247 146.282V155.901H278.045V151.894H270.511V155.901H268.326ZM270.511 149.709H278.045V146.381C278.045 146.326 278.023 146.282 277.979 146.248C277.934 146.204 277.885 146.182 277.83 146.182H270.71C270.655 146.182 270.605 146.204 270.561 146.248C270.528 146.282 270.511 146.326 270.511 146.381V149.709ZM286.405 155.901V146.182H281.537V143.98H293.459V146.182H288.607V155.901H286.405ZM294.73 155.901V143.98H305.708V146.182H296.932V148.831H303.986V151.05H296.932V153.699H305.708V155.901H294.73ZM307.547 155.901V144.082H322.647C323.15 144.082 323.598 144.204 323.992 144.449C324.386 144.693 324.699 145.013 324.93 145.407C325.174 145.8 325.296 146.242 325.296 146.731V155.901H323.116V146.792C323.116 146.656 323.062 146.541 322.953 146.446C322.858 146.337 322.742 146.283 322.606 146.283H318.062C317.913 146.283 317.79 146.337 317.695 146.446C317.6 146.541 317.553 146.656 317.553 146.792V155.901H315.331V146.792C315.331 146.656 315.277 146.541 315.168 146.446C315.073 146.337 314.958 146.283 314.822 146.283H310.257C310.121 146.283 310.006 146.337 309.911 146.446C309.816 146.541 309.768 146.656 309.768 146.792V155.901H307.547ZM327.327 155.901V146.282C327.327 145.862 327.432 145.481 327.642 145.139C327.852 144.786 328.128 144.504 328.47 144.295C328.823 144.085 329.209 143.98 329.629 143.98H336.931C337.35 143.98 337.736 144.085 338.09 144.295C338.443 144.504 338.724 144.786 338.934 145.139C339.144 145.481 339.249 145.862 339.249 146.282V155.901H337.046V151.894H329.513V155.901H327.327ZM329.513 149.709H337.046V146.381C337.046 146.326 337.024 146.282 336.98 146.248C336.936 146.204 336.886 146.182 336.831 146.182H329.712C329.656 146.182 329.607 146.204 329.563 146.248C329.529 146.282 329.513 146.326 329.513 146.381V149.709ZM332.079 142.987L332.857 139.957H335.043L334.298 142.987H332.079ZM345.407 155.901V146.182H340.539V143.98H352.46V146.182H347.609V155.901H345.407ZM353.467 155.901V143.98H355.636V155.901H353.467ZM359.541 155.901C359.122 155.901 358.735 155.796 358.382 155.587C358.04 155.377 357.764 155.101 357.554 154.759C357.345 154.406 357.24 154.019 357.24 153.6V146.282C357.24 145.862 357.345 145.481 357.554 145.139C357.764 144.786 358.04 144.504 358.382 144.295C358.735 144.085 359.122 143.98 359.541 143.98H369.128V146.182H360.005C359.828 146.182 359.685 146.232 359.574 146.331C359.475 146.431 359.425 146.574 359.425 146.762V153.12C359.425 153.296 359.475 153.44 359.574 153.55C359.685 153.65 359.828 153.699 360.005 153.699H369.128V155.901H359.541ZM370.887 155.901V146.282C370.887 145.862 370.992 145.481 371.202 145.139C371.412 144.786 371.688 144.504 372.03 144.295C372.383 144.085 372.769 143.98 373.189 143.98H380.491C380.91 143.98 381.296 144.085 381.65 144.295C382.003 144.504 382.284 144.786 382.494 145.139C382.704 145.481 382.809 145.862 382.809 146.282V155.901H380.606V151.894H373.073V155.901H370.887ZM373.073 149.709H380.606V146.381C380.606 146.326 380.584 146.282 380.54 146.248C380.496 146.204 380.446 146.182 380.391 146.182H373.272C373.216 146.182 373.167 146.204 373.123 146.248C373.089 146.282 373.073 146.326 373.073 146.381V149.709ZM392.057 155.901C391.638 155.901 391.252 155.796 390.898 155.587C390.556 155.377 390.28 155.101 390.071 154.759C389.861 154.406 389.756 154.019 389.756 153.6V146.282C389.756 145.862 389.861 145.481 390.071 145.139C390.28 144.786 390.556 144.504 390.898 144.295C391.252 144.085 391.638 143.98 392.057 143.98H401.644V146.182H392.521C392.344 146.182 392.201 146.232 392.091 146.331C391.991 146.431 391.942 146.574 391.942 146.762V153.12C391.942 153.296 391.991 153.44 392.091 153.55C392.201 153.65 392.344 153.699 392.521 153.699H401.644V155.901H392.057ZM405.639 155.901C405.219 155.901 404.833 155.796 404.48 155.587C404.138 155.377 403.862 155.101 403.652 154.759C403.442 154.406 403.337 154.019 403.337 153.6V146.282C403.337 145.862 403.442 145.481 403.652 145.139C403.862 144.786 404.138 144.504 404.48 144.295C404.833 144.085 405.219 143.98 405.639 143.98H412.957C413.377 143.98 413.758 144.085 414.1 144.295C414.453 144.504 414.734 144.786 414.944 145.139C415.154 145.481 415.259 145.862 415.259 146.282V153.6C415.259 154.019 415.154 154.406 414.944 154.759C414.734 155.101 414.453 155.377 414.1 155.587C413.758 155.796 413.377 155.901 412.957 155.901H405.639ZM405.722 153.699H412.841C412.897 153.699 412.946 153.683 412.99 153.65C413.035 153.605 413.057 153.556 413.057 153.5V146.381C413.057 146.326 413.035 146.282 412.99 146.248C412.946 146.204 412.897 146.182 412.841 146.182H405.722C405.667 146.182 405.617 146.204 405.573 146.248C405.54 146.282 405.523 146.326 405.523 146.381V153.5C405.523 153.556 405.54 153.605 405.573 153.65C405.617 153.683 405.667 153.699 405.722 153.699ZM417.255 155.901V144.082H432.356C432.858 144.082 433.307 144.204 433.701 144.449C434.094 144.693 434.407 145.013 434.638 145.407C434.882 145.8 435.005 146.242 435.005 146.731V155.901H432.824V146.792C432.824 146.656 432.77 146.541 432.661 146.446C432.566 146.337 432.451 146.283 432.315 146.283H427.77C427.621 146.283 427.499 146.337 427.404 146.446C427.309 146.541 427.261 146.656 427.261 146.792V155.901H425.04V146.792C425.04 146.656 424.985 146.541 424.877 146.446C424.782 146.337 424.666 146.283 424.53 146.283H419.966C419.83 146.283 419.714 146.337 419.619 146.446C419.524 146.541 419.476 146.656 419.476 146.792V155.901H417.255ZM437.003 155.901V143.997H446.606C447.025 143.997 447.412 144.101 447.765 144.311C448.118 144.521 448.4 144.802 448.609 145.156C448.819 145.498 448.924 145.879 448.924 146.298V149.51C448.924 149.93 448.819 150.316 448.609 150.669C448.4 151.022 448.118 151.304 447.765 151.514C447.412 151.712 447.025 151.812 446.606 151.812L439.188 151.828V155.901H437.003ZM439.387 149.61H446.506C446.562 149.61 446.611 149.593 446.656 149.56C446.7 149.527 446.722 149.483 446.722 149.427V146.381C446.722 146.326 446.7 146.282 446.656 146.248C446.611 146.204 446.562 146.182 446.506 146.182H439.387C439.332 146.182 439.282 146.204 439.238 146.248C439.205 146.282 439.188 146.326 439.188 146.381V149.427C439.188 149.483 439.205 149.527 439.238 149.56C439.282 149.593 439.332 149.61 439.387 149.61ZM452.368 155.901C451.949 155.901 451.562 155.796 451.209 155.587C450.867 155.377 450.591 155.101 450.381 154.759C450.171 154.406 450.067 154.019 450.067 153.6V143.98H452.252V153.5C452.252 153.556 452.269 153.605 452.302 153.65C452.346 153.683 452.396 153.699 452.451 153.699H459.57C459.626 153.699 459.675 153.683 459.719 153.65C459.764 153.605 459.786 153.556 459.786 153.5V143.98H461.988V153.6C461.988 154.019 461.883 154.406 461.673 154.759C461.464 155.101 461.182 155.377 460.829 155.587C460.487 155.796 460.106 155.901 459.686 155.901H452.368ZM468.083 155.901V146.182H463.215V143.98H475.136V146.182H470.285V155.901H468.083ZM476.408 155.901V146.282C476.408 145.862 476.513 145.481 476.722 145.139C476.932 144.786 477.208 144.504 477.55 144.295C477.904 144.085 478.29 143.98 478.709 143.98H486.011C486.431 143.98 486.817 144.085 487.17 144.295C487.523 144.504 487.805 144.786 488.015 145.139C488.224 145.481 488.329 145.862 488.329 146.282V155.901H486.127V151.894H478.593V155.901H476.408ZM478.593 149.709H486.127V146.381C486.127 146.326 486.105 146.282 486.061 146.248C486.017 146.204 485.967 146.182 485.912 146.182H478.792C478.737 146.182 478.687 146.204 478.643 146.248C478.61 146.282 478.593 146.326 478.593 146.381V149.709ZM492.517 155.901C492.098 155.901 491.711 155.796 491.358 155.587C491.016 155.377 490.74 155.101 490.53 154.759C490.321 154.406 490.216 154.019 490.216 153.6V146.282C490.216 145.862 490.321 145.481 490.53 145.139C490.74 144.786 491.016 144.504 491.358 144.295C491.711 144.085 492.098 143.98 492.517 143.98H502.104V146.182H492.981C492.804 146.182 492.661 146.232 492.55 146.331C492.451 146.431 492.401 146.574 492.401 146.762V153.12C492.401 153.296 492.451 153.44 492.55 153.55C492.661 153.65 492.804 153.699 492.981 153.699H502.104V155.901H492.517ZM503.598 155.901V143.98H505.767V155.901H503.598ZM509.64 155.901C509.22 155.901 508.834 155.796 508.481 155.587C508.138 155.377 507.862 155.101 507.653 154.759C507.443 154.406 507.338 154.019 507.338 153.6V146.282C507.338 145.862 507.443 145.481 507.653 145.139C507.862 144.786 508.138 144.504 508.481 144.295C508.834 144.085 509.22 143.98 509.64 143.98H516.958C517.377 143.98 517.758 144.085 518.1 144.295C518.454 144.504 518.735 144.786 518.945 145.139C519.155 145.481 519.259 145.862 519.259 146.282V153.6C519.259 154.019 519.155 154.406 518.945 154.759C518.735 155.101 518.454 155.377 518.1 155.587C517.758 155.796 517.377 155.901 516.958 155.901H509.64ZM509.722 153.699H516.842C516.897 153.699 516.947 153.683 516.991 153.65C517.035 153.605 517.057 153.556 517.057 153.5V146.381C517.057 146.326 517.035 146.282 516.991 146.248C516.947 146.204 516.897 146.182 516.842 146.182H509.722C509.667 146.182 509.618 146.204 509.573 146.248C509.54 146.282 509.524 146.326 509.524 146.381V153.5C509.524 153.556 509.54 153.605 509.573 153.65C509.618 153.683 509.667 153.699 509.722 153.699ZM521.256 155.901V144.082H530.63C531.119 144.082 531.561 144.204 531.955 144.449C532.362 144.693 532.681 145.013 532.912 145.407C533.157 145.8 533.279 146.242 533.279 146.731V155.901H531.078V146.792C531.078 146.656 531.024 146.541 530.915 146.446C530.82 146.337 530.705 146.283 530.569 146.283H523.966C523.83 146.283 523.708 146.337 523.599 146.446C523.504 146.541 523.457 146.656 523.457 146.792V155.901H521.256ZM535.305 155.901V146.282C535.305 145.862 535.41 145.481 535.62 145.139C535.829 144.786 536.105 144.504 536.447 144.295C536.801 144.085 537.187 143.98 537.606 143.98H544.908C545.328 143.98 545.714 144.085 546.067 144.295C546.42 144.504 546.702 144.786 546.912 145.139C547.121 145.481 547.226 145.862 547.226 146.282V155.901H545.024V151.894H537.491V155.901H535.305ZM537.491 149.709H545.024V146.381C545.024 146.326 545.002 146.282 544.958 146.248C544.914 146.204 544.864 146.182 544.809 146.182H537.689C537.634 146.182 537.584 146.204 537.54 146.248C537.507 146.282 537.491 146.326 537.491 146.381V149.709ZM549.129 155.901V143.963H551.315V153.699H561.051V155.901H549.129Z" fill="white"/>
<path d="M81.2648 116.567V61.4697H87.4547V110.377H136.286V116.567H81.2648ZM140.894 116.567V70.7163C140.894 69.0351 141.301 67.5068 142.117 66.1312C142.932 64.7048 144.027 63.584 145.403 62.7688C146.829 61.9537 148.383 61.5461 150.064 61.5461H186.745C188.426 61.5461 189.954 61.9537 191.33 62.7688C192.756 63.584 193.877 64.7048 194.692 66.1312C195.508 67.5068 195.915 69.0351 195.915 70.7163V116.567H189.725V96.4693H147.084V116.567H140.894ZM147.084 90.2795H189.725V70.7163C189.725 69.9012 189.42 69.2135 188.808 68.6531C188.248 68.0417 187.56 67.736 186.745 67.736H150.064C149.249 67.736 148.536 68.0417 147.924 68.6531C147.364 69.2135 147.084 69.9012 147.084 70.7163V90.2795ZM433.806 116.567V70.7163C433.806 69.0351 434.214 67.5068 435.029 66.1312C435.844 64.7048 436.939 63.584 438.315 62.7688C439.741 61.9537 441.295 61.5461 442.976 61.5461H479.657C481.338 61.5461 482.867 61.9537 484.242 62.7688C485.669 63.584 486.79 64.7048 487.605 66.1312C488.42 67.5068 488.827 69.0351 488.827 70.7163V116.567H482.637V96.4693H439.996V116.567H433.806ZM439.996 90.2795H482.637V70.7163C482.637 69.9012 482.332 69.2135 481.72 68.6531C481.16 68.0417 480.472 67.736 479.657 67.736H442.976C442.161 67.736 441.448 68.0417 440.837 68.6531C440.276 69.2135 439.996 69.9012 439.996 70.7163V90.2795ZM506.704 116.567C505.023 116.567 503.469 116.16 502.043 115.345C500.667 114.53 499.572 113.434 498.757 112.059C497.942 110.632 497.534 109.078 497.534 107.397V70.7163C497.534 69.0351 497.942 67.5068 498.757 66.1312C499.572 64.7048 500.667 63.584 502.043 62.7688C503.469 61.9537 505.023 61.5461 506.704 61.5461H552.403V67.736H506.704C505.889 67.736 505.176 68.0417 504.565 68.6531C504.004 69.2135 503.724 69.9012 503.724 70.7163V107.397C503.724 108.212 504.004 108.926 504.565 109.537C505.176 110.097 505.889 110.377 506.704 110.377H552.403V116.567H506.704Z" fill="white"/>
<path d="M131.185 180.435C131.185 180.435 193.343 183.633 213.424 135.034C233.505 86.4349 243.478 36.5573 259.624 36.5573C275.771 36.5573 283.227 94.1086 300.094 94.1086C311.827 94.1086 325.322 46.5414 338.091 60.8567C343.224 66.6119 354.224 135.034 378.424 135.034C400.424 135.034 417.754 46.1096 417.754 46.1096" stroke="white" stroke-width="1.27364"/>
<ellipse cx="2.54777" cy="2.54777" rx="2.54777" ry="2.54777" transform="matrix(1 0 0 -1 210.151 139.722)" fill="#FF0000"/>
<ellipse cx="2.54777" cy="2.54777" rx="2.54777" ry="2.54777" transform="matrix(1 0 0 -1 257.276 39.1047)" fill="#FF0000"/>
<ellipse cx="2.54777" cy="2.54777" rx="2.54777" ry="2.54777" transform="matrix(1 0 0 -1 352.799 112.976)" fill="#FF0000"/>
<g clip-path="url(#clip2_10_658)">
<path d="M517 0H117V200H517V0Z" fill="black"/>
<path d="M121 0V200" stroke="#939393" stroke-opacity="0.4" stroke-width="0.4"/>
<path d="M125 0V200" stroke="#939393" stroke-opacity="0.4" stroke-width="0.4"/>
<path d="M129 0V200" stroke="#939393" stroke-opacity="0.4" stroke-width="0.4"/>
<path d="M133 0V200" stroke="#939393" stroke-opacity="0.4" stroke-width="0.4"/>
<path d="M137 0V200" stroke="#939393" stroke-opacity="0.4" stroke-width="0.4"/>
<path d="M141 0V200" stroke="#939393" stroke-opacity="0.4" stroke-width="0.4"/>
<path d="M145 0V200" stroke="#939393" stroke-opacity="0.4" stroke-width="0.4"/>
<path d="M149 0V200" stroke="#939393" stroke-opacity="0.4" stroke-width="0.4"/>
<path d="M153 0V200" stroke="#939393" stroke-opacity="0.4" stroke-width="0.4"/>
<path d="M157 0V200" stroke="#939393" stroke-opacity="0.4" stroke-width="0.4"/>
<path d="M161 0V200" stroke="#939393" stroke-opacity="0.4" stroke-width="0.4"/>
<path d="M165 0V200" stroke="#939393" stroke-opacity="0.4" stroke-width="0.4"/>
<path d="M169 0V200" stroke="#939393" stroke-opacity="0.4" stroke-width="0.4"/>
<path d="M173 0V200" stroke="#939393" stroke-opacity="0.4" stroke-width="0.4"/>
<path d="M177 0V200" stroke="#939393" stroke-opacity="0.4" stroke-width="0.4"/>
<path d="M181 0V200" stroke="#939393" stroke-opacity="0.4" stroke-width="0.4"/>
<path d="M185 0V200" stroke="#939393" stroke-opacity="0.4" stroke-width="0.4"/>
<path d="M189 0V200" stroke="#939393" stroke-opacity="0.4" stroke-width="0.4"/>
<path d="M193 0V200" stroke="#939393" stroke-opacity="0.4" stroke-width="0.4"/>
<path d="M197 0V200" stroke="#939393" stroke-opacity="0.4" stroke-width="0.4"/>
<path d="M201 0V200" stroke="#939393" stroke-opacity="0.4" stroke-width="0.4"/>
<path d="M205 0V200" stroke="#939393" stroke-opacity="0.4" stroke-width="0.4"/>
<path d="M209 0V200" stroke="#939393" stroke-opacity="0.4" stroke-width="0.4"/>
<path d="M213 0V200" stroke="#939393" stroke-opacity="0.4" stroke-width="0.4"/>
<path d="M217 0V200" stroke="#939393" stroke-opacity="0.4" stroke-width="0.4"/>
<path d="M221 0V200" stroke="#939393" stroke-opacity="0.4" stroke-width="0.4"/>
<path d="M225 0V200" stroke="#939393" stroke-opacity="0.4" stroke-width="0.4"/>
<path d="M229 0V200" stroke="#939393" stroke-opacity="0.4" stroke-width="0.4"/>
<path d="M233 0V200" stroke="#939393" stroke-opacity="0.4" stroke-width="0.4"/>
<path d="M237 0V200" stroke="#939393" stroke-opacity="0.4" stroke-width="0.4"/>
<path d="M241 0V200" stroke="#939393" stroke-opacity="0.4" stroke-width="0.4"/>
<path d="M245 0V200" stroke="#939393" stroke-opacity="0.4" stroke-width="0.4"/>
<path d="M249 0V200" stroke="#939393" stroke-opacity="0.4" stroke-width="0.4"/>
<path d="M253 0V200" stroke="#939393" stroke-opacity="0.4" stroke-width="0.4"/>
<path d="M257 0V200" stroke="#939393" stroke-opacity="0.4" stroke-width="0.4"/>
<path d="M261 0V200" stroke="#939393" stroke-opacity="0.4" stroke-width="0.4"/>
<path d="M265 0V200" stroke="#939393" stroke-opacity="0.4" stroke-width="0.4"/>
<path d="M269 0V200" stroke="#939393" stroke-opacity="0.4" stroke-width="0.4"/>
<path d="M273 0V200" stroke="#939393" stroke-opacity="0.4" stroke-width="0.4"/>
<path d="M277 0V200" stroke="#939393" stroke-opacity="0.4" stroke-width="0.4"/>
<path d="M281 0V200" stroke="#939393" stroke-opacity="0.4" stroke-width="0.4"/>
<path d="M285 0V200" stroke="#939393" stroke-opacity="0.4" stroke-width="0.4"/>
<path d="M289 0V200" stroke="#939393" stroke-opacity="0.4" stroke-width="0.4"/>
<path d="M293 0V200" stroke="#939393" stroke-opacity="0.4" stroke-width="0.4"/>
<path d="M297 0V200" stroke="#939393" stroke-opacity="0.4" stroke-width="0.4"/>
<path d="M301 0V200" stroke="#939393" stroke-opacity="0.4" stroke-width="0.4"/>
<path d="M305 0V200" stroke="#939393" stroke-opacity="0.4" stroke-width="0.4"/>
<path d="M309 0V200" stroke="#939393" stroke-opacity="0.4" stroke-width="0.4"/>
<path d="M313 0V200" stroke="#939393" stroke-opacity="0.4" stroke-width="0.4"/>
<path d="M317 0V200" stroke="#939393" stroke-opacity="0.4" stroke-width="0.4"/>
<path d="M321 0V200" stroke="#939393" stroke-opacity="0.4" stroke-width="0.4"/>
<path d="M325 0V200" stroke="#939393" stroke-opacity="0.4" stroke-width="0.4"/>
<path d="M329 0V200" stroke="#939393" stroke-opacity="0.4" stroke-width="0.4"/>
<path d="M333 0V200" stroke="#939393" stroke-opacity="0.4" stroke-width="0.4"/>
<path d="M337 0V200" stroke="#939393" stroke-opacity="0.4" stroke-width="0.4"/>
<path d="M341 0V200" stroke="#939393" stroke-opacity="0.4" stroke-width="0.4"/>
<path d="M345 0V200" stroke="#939393" stroke-opacity="0.4" stroke-width="0.4"/>
<path d="M349 0V200" stroke="#939393" stroke-opacity="0.4" stroke-width="0.4"/>
<path d="M353 0V200" stroke="#939393" stroke-opacity="0.4" stroke-width="0.4"/>
<path d="M357 0V200" stroke="#939393" stroke-opacity="0.4" stroke-width="0.4"/>
<path d="M361 0V200" stroke="#939393" stroke-opacity="0.4" stroke-width="0.4"/>
<path d="M365 0V200" stroke="#939393" stroke-opacity="0.4" stroke-width="0.4"/>
<path d="M369 0V200" stroke="#939393" stroke-opacity="0.4" stroke-width="0.4"/>
<path d="M373 0V200" stroke="#939393" stroke-opacity="0.4" stroke-width="0.4"/>
<path d="M377 0V200" stroke="#939393" stroke-opacity="0.4" stroke-width="0.4"/>
<path d="M381 0V200" stroke="#939393" stroke-opacity="0.4" stroke-width="0.4"/>
<path d="M385 0V200" stroke="#939393" stroke-opacity="0.4" stroke-width="0.4"/>
<path d="M389 0V200" stroke="#939393" stroke-opacity="0.4" stroke-width="0.4"/>
<path d="M393 0V200" stroke="#939393" stroke-opacity="0.4" stroke-width="0.4"/>
<path d="M397 0V200" stroke="#939393" stroke-opacity="0.4" stroke-width="0.4"/>
<path d="M401 0V200" stroke="#939393" stroke-opacity="0.4" stroke-width="0.4"/>
<path d="M405 0V200" stroke="#939393" stroke-opacity="0.4" stroke-width="0.4"/>
<path d="M409 0V200" stroke="#939393" stroke-opacity="0.4" stroke-width="0.4"/>
<path d="M413 0V200" stroke="#939393" stroke-opacity="0.4" stroke-width="0.4"/>
<path d="M417 0V200" stroke="#939393" stroke-opacity="0.4" stroke-width="0.4"/>
<path d="M421 0V200" stroke="#939393" stroke-opacity="0.4" stroke-width="0.4"/>
<path d="M425 0V200" stroke="#939393" stroke-opacity="0.4" stroke-width="0.4"/>
<path d="M429 0V200" stroke="#939393" stroke-opacity="0.4" stroke-width="0.4"/>
<path d="M433 0V200" stroke="#939393" stroke-opacity="0.4" stroke-width="0.4"/>
<path d="M437 0V200" stroke="#939393" stroke-opacity="0.4" stroke-width="0.4"/>
<path d="M441 0V200" stroke="#939393" stroke-opacity="0.4" stroke-width="0.4"/>
<path d="M445 0V200" stroke="#939393" stroke-opacity="0.4" stroke-width="0.4"/>
<path d="M449 0V200" stroke="#939393" stroke-opacity="0.4" stroke-width="0.4"/>
<path d="M453 0V200" stroke="#939393" stroke-opacity="0.4" stroke-width="0.4"/>
<path d="M457 0V200" stroke="#939393" stroke-opacity="0.4" stroke-width="0.4"/>
<path d="M461 0V200" stroke="#939393" stroke-opacity="0.4" stroke-width="0.4"/>
<path d="M465 0V200" stroke="#939393" stroke-opacity="0.4" stroke-width="0.4"/>
<path d="M469 0V200" stroke="#939393" stroke-opacity="0.4" stroke-width="0.4"/>
<path d="M473 0V200" stroke="#939393" stroke-opacity="0.4" stroke-width="0.4"/>
<path d="M477 0V200" stroke="#939393" stroke-opacity="0.4" stroke-width="0.4"/>
<path d="M481 0V200" stroke="#939393" stroke-opacity="0.4" stroke-width="0.4"/>
<path d="M485 0V200" stroke="#939393" stroke-opacity="0.4" stroke-width="0.4"/>
<path d="M489 0V200" stroke="#939393" stroke-opacity="0.4" stroke-width="0.4"/>
<path d="M493 0V200" stroke="#939393" stroke-opacity="0.4" stroke-width="0.4"/>
<path d="M497 0V200" stroke="#939393" stroke-opacity="0.4" stroke-width="0.4"/>
<path d="M501 0V200" stroke="#939393" stroke-opacity="0.4" stroke-width="0.4"/>
<path d="M505 0V200" stroke="#939393" stroke-opacity="0.4" stroke-width="0.4"/>
<path d="M509 0V200" stroke="#939393" stroke-opacity="0.4" stroke-width="0.4"/>
<path d="M513 0V200" stroke="#939393" stroke-opacity="0.4" stroke-width="0.4"/>
<path d="M117 4H517" stroke="#939393" stroke-opacity="0.4" stroke-width="0.4"/>
<path d="M117 8H517" stroke="#939393" stroke-opacity="0.4" stroke-width="0.4"/>
<path d="M117 12H517" stroke="#939393" stroke-opacity="0.4" stroke-width="0.4"/>
<path d="M117 16H517" stroke="#939393" stroke-opacity="0.4" stroke-width="0.4"/>
<path d="M117 20H517" stroke="#939393" stroke-opacity="0.4" stroke-width="0.4"/>
<path d="M117 24H517" stroke="#939393" stroke-opacity="0.4" stroke-width="0.4"/>
<path d="M117 28H517" stroke="#939393" stroke-opacity="0.4" stroke-width="0.4"/>
<path d="M117 32H517" stroke="#939393" stroke-opacity="0.4" stroke-width="0.4"/>
<path d="M117 36H517" stroke="#939393" stroke-opacity="0.4" stroke-width="0.4"/>
<path d="M117 40H517" stroke="#939393" stroke-opacity="0.4" stroke-width="0.4"/>
<path d="M117 44H517" stroke="#939393" stroke-opacity="0.4" stroke-width="0.4"/>
<path d="M117 48H517" stroke="#939393" stroke-opacity="0.4" stroke-width="0.4"/>
<path d="M117 52H517" stroke="#939393" stroke-opacity="0.4" stroke-width="0.4"/>
<path d="M117 56H517" stroke="#939393" stroke-opacity="0.4" stroke-width="0.4"/>
<path d="M117 60H517" stroke="#939393" stroke-opacity="0.4" stroke-width="0.4"/>
<path d="M117 64H517" stroke="#939393" stroke-opacity="0.4" stroke-width="0.4"/>
<path d="M117 68H517" stroke="#939393" stroke-opacity="0.4" stroke-width="0.4"/>
<path d="M117 72H517" stroke="#939393" stroke-opacity="0.4" stroke-width="0.4"/>
<path d="M117 76H517" stroke="#939393" stroke-opacity="0.4" stroke-width="0.4"/>
<path d="M117 80H517" stroke="#939393" stroke-opacity="0.4" stroke-width="0.4"/>
<path d="M117 84H517" stroke="#939393" stroke-opacity="0.4" stroke-width="0.4"/>
<path d="M117 88H517" stroke="#939393" stroke-opacity="0.4" stroke-width="0.4"/>
<path d="M117 92H517" stroke="#939393" stroke-opacity="0.4" stroke-width="0.4"/>
<path d="M117 96H517" stroke="#939393" stroke-opacity="0.4" stroke-width="0.4"/>
<path d="M117 100H517" stroke="#939393" stroke-opacity="0.4" stroke-width="0.4"/>
<path d="M117 104H517" stroke="#939393" stroke-opacity="0.4" stroke-width="0.4"/>
<path d="M117 108H517" stroke="#939393" stroke-opacity="0.4" stroke-width="0.4"/>
<path d="M117 112H517" stroke="#939393" stroke-opacity="0.4" stroke-width="0.4"/>
<path d="M117 116H517" stroke="#939393" stroke-opacity="0.4" stroke-width="0.4"/>
<path d="M117 120H517" stroke="#939393" stroke-opacity="0.4" stroke-width="0.4"/>
<path d="M117 124H517" stroke="#939393" stroke-opacity="0.4" stroke-width="0.4"/>
<path d="M117 128H517" stroke="#939393" stroke-opacity="0.4" stroke-width="0.4"/>
<path d="M117 132H517" stroke="#939393" stroke-opacity="0.4" stroke-width="0.4"/>
<path d="M117 136H517" stroke="#939393" stroke-opacity="0.4" stroke-width="0.4"/>
<path d="M117 140H517" stroke="#939393" stroke-opacity="0.4" stroke-width="0.4"/>
<path d="M117 144H517" stroke="#939393" stroke-opacity="0.4" stroke-width="0.4"/>
<path d="M117 148H517" stroke="#939393" stroke-opacity="0.4" stroke-width="0.4"/>
<path d="M117 152H517" stroke="#939393" stroke-opacity="0.4" stroke-width="0.4"/>
<path d="M117 156H517" stroke="#939393" stroke-opacity="0.4" stroke-width="0.4"/>
<path d="M117 160H517" stroke="#939393" stroke-opacity="0.4" stroke-width="0.4"/>
<path d="M117 164H517" stroke="#939393" stroke-opacity="0.4" stroke-width="0.4"/>
<path d="M117 168H517" stroke="#939393" stroke-opacity="0.4" stroke-width="0.4"/>
<path d="M117 172H517" stroke="#939393" stroke-opacity="0.4" stroke-width="0.4"/>
<path d="M117 176H517" stroke="#939393" stroke-opacity="0.4" stroke-width="0.4"/>
<path d="M117 180H517" stroke="#939393" stroke-opacity="0.4" stroke-width="0.4"/>
<path d="M117 184H517" stroke="#939393" stroke-opacity="0.4" stroke-width="0.4"/>
<path d="M117 188H517" stroke="#939393" stroke-opacity="0.4" stroke-width="0.4"/>
<path d="M117 192H517" stroke="#939393" stroke-opacity="0.4" stroke-width="0.4"/>
<path d="M117 196H517" stroke="#939393" stroke-opacity="0.4" stroke-width="0.4"/>
<path d="M517 0H117V200H517V0Z" fill="url(#paint3_radial_10_658)"/>
</g>
<path d="M61.1348 130.807L310.769 131.434L560.402 132.061" stroke="url(#paint4_linear_10_658)" stroke-width="1.27364"/>
<path d="M221.614 179.842V20" stroke="url(#paint5_linear_10_658)" stroke-width="1.27364"/>
<path d="M72.8551 155.901V143.963H75.0407V153.699H84.7764V155.901H72.8551ZM85.7748 155.901V146.282C85.7748 145.862 85.8796 145.481 86.0893 145.139C86.2991 144.786 86.575 144.504 86.9172 144.295C87.2704 144.085 87.6568 143.98 88.0762 143.98H95.378C95.7975 143.98 96.1838 144.085 96.537 144.295C96.8902 144.504 97.1717 144.786 97.3814 145.139C97.5912 145.481 97.696 145.862 97.696 146.282V155.901H95.4939V151.894H87.9603V155.901H85.7748ZM87.9603 149.709H95.4939V146.381C95.4939 146.326 95.4718 146.282 95.4277 146.248C95.3835 146.204 95.3338 146.182 95.2787 146.182H88.159C88.1038 146.182 88.0541 146.204 88.01 146.248C87.9769 146.282 87.9603 146.326 87.9603 146.381V149.709ZM99.6322 155.901V143.98H108.772C109.191 143.98 109.572 144.085 109.914 144.295C110.268 144.504 110.549 144.786 110.759 145.139C110.968 145.481 111.073 145.862 111.073 146.282V148.616C111.073 148.76 111.062 148.898 111.04 149.03C111.018 149.162 110.979 149.289 110.924 149.411C111.112 149.665 111.261 149.93 111.371 150.206C111.493 150.482 111.553 150.757 111.553 151.033V153.6C111.553 154.019 111.449 154.406 111.239 154.759C111.029 155.101 110.748 155.377 110.394 155.587C110.041 155.796 109.655 155.901 109.235 155.901H99.6322ZM102.016 153.699H109.136C109.191 153.699 109.241 153.683 109.285 153.65C109.329 153.605 109.351 153.556 109.351 153.5V151.133C109.351 151.078 109.329 151.033 109.285 151C109.241 150.956 109.191 150.934 109.136 150.934H102.016C101.961 150.934 101.912 150.956 101.867 151C101.834 151.033 101.818 151.078 101.818 151.133V153.5C101.818 153.556 101.834 153.605 101.867 153.65C101.912 153.683 101.961 153.699 102.016 153.699ZM102.016 148.732H108.672C108.728 148.732 108.772 148.715 108.805 148.682C108.838 148.638 108.855 148.588 108.855 148.533V146.381C108.855 146.326 108.838 146.282 108.805 146.248C108.772 146.204 108.728 146.182 108.672 146.182H102.016C101.961 146.182 101.912 146.204 101.867 146.248C101.834 146.282 101.818 146.326 101.818 146.381V148.533C101.818 148.588 101.834 148.638 101.867 148.682C101.912 148.715 101.961 148.732 102.016 148.732ZM115.627 155.901C115.208 155.901 114.821 155.796 114.468 155.587C114.126 155.377 113.85 155.101 113.64 154.759C113.43 154.406 113.326 154.019 113.326 153.6V146.282C113.326 145.862 113.43 145.481 113.64 145.139C113.85 144.786 114.126 144.504 114.468 144.295C114.821 144.085 115.208 143.98 115.627 143.98H122.945C123.365 143.98 123.746 144.085 124.088 144.295C124.441 144.504 124.723 144.786 124.932 145.139C125.142 145.481 125.247 145.862 125.247 146.282V153.6C125.247 154.019 125.142 154.406 124.932 154.759C124.723 155.101 124.441 155.377 124.088 155.587C123.746 155.796 123.365 155.901 122.945 155.901H115.627ZM115.71 153.699H122.83C122.885 153.699 122.934 153.683 122.979 153.65C123.023 153.605 123.045 153.556 123.045 153.5V146.381C123.045 146.326 123.023 146.282 122.979 146.248C122.934 146.204 122.885 146.182 122.83 146.182H115.71C115.655 146.182 115.605 146.204 115.561 146.248C115.528 146.282 115.511 146.326 115.511 146.381V153.5C115.511 153.556 115.528 153.605 115.561 153.65C115.605 153.683 115.655 153.699 115.71 153.699ZM136.574 155.901L132.981 151.613H135.846L138.958 155.289V155.901H136.574ZM127.07 155.901V143.997H136.674C137.093 143.997 137.479 144.101 137.833 144.311C138.186 144.521 138.467 144.802 138.677 145.156C138.887 145.498 138.992 145.879 138.992 146.298V149.51C138.992 149.93 138.887 150.316 138.677 150.669C138.467 151.022 138.186 151.304 137.833 151.514C137.479 151.712 137.093 151.812 136.674 151.812L129.256 151.828V155.901H127.07ZM129.455 149.61H136.574C136.629 149.61 136.679 149.593 136.723 149.56C136.767 149.527 136.789 149.483 136.789 149.427V146.381C136.789 146.326 136.767 146.282 136.723 146.248C136.679 146.204 136.629 146.182 136.574 146.182H129.455C129.399 146.182 129.35 146.204 129.306 146.248C129.272 146.282 129.256 146.326 129.256 146.381V149.427C129.256 149.483 129.272 149.527 129.306 149.56C129.35 149.593 129.399 149.61 129.455 149.61ZM140.766 155.901V146.282C140.766 145.862 140.871 145.481 141.081 145.139C141.291 144.786 141.567 144.504 141.909 144.295C142.262 144.085 142.648 143.98 143.068 143.98H150.37C150.789 143.98 151.175 144.085 151.529 144.295C151.882 144.504 152.163 144.786 152.373 145.139C152.583 145.481 152.688 145.862 152.688 146.282V155.901H150.486V151.894H142.952V155.901H140.766ZM142.952 149.709H150.486V146.381C150.486 146.326 150.463 146.282 150.419 146.248C150.375 146.204 150.326 146.182 150.27 146.182H143.151C143.095 146.182 143.046 146.204 143.002 146.248C142.969 146.282 142.952 146.326 142.952 146.381V149.709ZM158.846 155.901V146.182H153.978V143.98H165.899V146.182H161.048V155.901H158.846ZM169.406 155.901C168.987 155.901 168.6 155.796 168.247 155.587C167.905 155.377 167.629 155.101 167.419 154.759C167.209 154.406 167.105 154.019 167.105 153.6V146.282C167.105 145.862 167.209 145.481 167.419 145.139C167.629 144.786 167.905 144.504 168.247 144.295C168.6 144.085 168.987 143.98 169.406 143.98H176.724C177.144 143.98 177.525 144.085 177.867 144.295C178.22 144.504 178.502 144.786 178.711 145.139C178.921 145.481 179.026 145.862 179.026 146.282V153.6C179.026 154.019 178.921 154.406 178.711 154.759C178.502 155.101 178.22 155.377 177.867 155.587C177.525 155.796 177.144 155.901 176.724 155.901H169.406ZM169.489 153.699H176.608C176.664 153.699 176.713 153.683 176.757 153.65C176.802 153.605 176.824 153.556 176.824 153.5V146.381C176.824 146.326 176.802 146.282 176.757 146.248C176.713 146.204 176.664 146.182 176.608 146.182H169.489C169.434 146.182 169.384 146.204 169.34 146.248C169.307 146.282 169.29 146.326 169.29 146.381V153.5C169.29 153.556 169.307 153.605 169.34 153.65C169.384 153.683 169.434 153.699 169.489 153.699ZM171.857 142.987L172.635 139.957H174.82L174.075 142.987H171.857ZM190.353 155.901L186.76 151.613H189.625L192.737 155.289V155.901H190.353ZM180.849 155.901V143.997H190.452C190.872 143.997 191.258 144.101 191.611 144.311C191.965 144.521 192.246 144.802 192.456 145.156C192.666 145.498 192.77 145.879 192.77 146.298V149.51C192.77 149.93 192.666 150.316 192.456 150.669C192.246 151.022 191.965 151.304 191.611 151.514C191.258 151.712 190.872 151.812 190.452 151.812L183.035 151.828V155.901H180.849ZM183.233 149.61H190.353C190.408 149.61 190.458 149.593 190.502 149.56C190.546 149.527 190.568 149.483 190.568 149.427V146.381C190.568 146.326 190.546 146.282 190.502 146.248C190.458 146.204 190.408 146.182 190.353 146.182H183.233C183.178 146.182 183.129 146.204 183.084 146.248C183.051 146.282 183.035 146.326 183.035 146.381V149.427C183.035 149.483 183.051 149.527 183.084 149.56C183.129 149.593 183.178 149.61 183.233 149.61ZM194.28 155.901V143.98H196.449V155.901H194.28ZM200.322 155.901C199.902 155.901 199.516 155.796 199.163 155.587C198.82 155.377 198.545 155.101 198.335 154.759C198.125 154.406 198.02 154.019 198.02 153.6V146.282C198.02 145.862 198.125 145.481 198.335 145.139C198.545 144.786 198.82 144.504 199.163 144.295C199.516 144.085 199.902 143.98 200.322 143.98H207.64C208.059 143.98 208.44 144.085 208.782 144.295C209.136 144.504 209.417 144.786 209.627 145.139C209.837 145.481 209.941 145.862 209.941 146.282V153.6C209.941 154.019 209.837 154.406 209.627 154.759C209.417 155.101 209.136 155.377 208.782 155.587C208.44 155.796 208.059 155.901 207.64 155.901H200.322ZM200.404 153.699H207.524C207.579 153.699 207.629 153.683 207.673 153.65C207.717 153.605 207.739 153.556 207.739 153.5V146.381C207.739 146.326 207.717 146.282 207.673 146.248C207.629 146.204 207.579 146.182 207.524 146.182H200.404C200.349 146.182 200.3 146.204 200.255 146.248C200.222 146.282 200.206 146.326 200.206 146.381V153.5C200.206 153.556 200.222 153.605 200.255 153.65C200.3 153.683 200.349 153.699 200.404 153.699ZM216.859 155.901V143.98H226.462C226.882 143.98 227.268 144.085 227.621 144.295C227.974 144.504 228.256 144.786 228.466 145.139C228.675 145.481 228.78 145.862 228.78 146.282V153.6C228.78 154.019 228.675 154.406 228.466 154.759C228.256 155.101 227.974 155.377 227.621 155.587C227.268 155.796 226.882 155.901 226.462 155.901H216.859ZM219.227 153.699H226.363C226.418 153.699 226.468 153.683 226.512 153.65C226.556 153.605 226.578 153.556 226.578 153.5V146.381C226.578 146.326 226.556 146.282 226.512 146.248C226.468 146.204 226.418 146.182 226.363 146.182H219.227C219.171 146.182 219.122 146.204 219.078 146.248C219.045 146.282 219.028 146.326 219.028 146.381V153.5C219.028 153.556 219.045 153.605 219.078 153.65C219.122 153.683 219.171 153.699 219.227 153.699ZM230.667 155.901V143.98H241.645V146.182H232.87V148.831H239.923V151.05H232.87V153.699H241.645V155.901H230.667ZM248.545 155.901V144.082H263.646C264.148 144.082 264.597 144.204 264.99 144.449C265.384 144.693 265.697 145.013 265.928 145.407C266.172 145.8 266.295 146.242 266.295 146.731V155.901H264.114V146.792C264.114 146.656 264.06 146.541 263.951 146.446C263.856 146.337 263.741 146.283 263.605 146.283H259.06C258.911 146.283 258.789 146.337 258.694 146.446C258.599 146.541 258.551 146.656 258.551 146.792V155.901H256.33V146.792C256.33 146.656 256.275 146.541 256.167 146.446C256.072 146.337 255.956 146.283 255.82 146.283H251.256C251.12 146.283 251.004 146.337 250.909 146.446C250.814 146.541 250.766 146.656 250.766 146.792V155.901H248.545ZM268.326 155.901V146.282C268.326 145.862 268.431 145.481 268.64 145.139C268.85 144.786 269.126 144.504 269.468 144.295C269.821 144.085 270.208 143.98 270.627 143.98H277.929C278.348 143.98 278.735 144.085 279.088 144.295C279.441 144.504 279.723 144.786 279.932 145.139C280.142 145.481 280.247 145.862 280.247 146.282V155.901H278.045V151.894H270.511V155.901H268.326ZM270.511 149.709H278.045V146.381C278.045 146.326 278.023 146.282 277.979 146.248C277.934 146.204 277.885 146.182 277.83 146.182H270.71C270.655 146.182 270.605 146.204 270.561 146.248C270.528 146.282 270.511 146.326 270.511 146.381V149.709ZM286.405 155.901V146.182H281.537V143.98H293.459V146.182H288.607V155.901H286.405ZM294.73 155.901V143.98H305.708V146.182H296.932V148.831H303.986V151.05H296.932V153.699H305.708V155.901H294.73ZM307.547 155.901V144.082H322.647C323.15 144.082 323.598 144.204 323.992 144.449C324.386 144.693 324.699 145.013 324.93 145.407C325.174 145.8 325.296 146.242 325.296 146.731V155.901H323.116V146.792C323.116 146.656 323.062 146.541 322.953 146.446C322.858 146.337 322.742 146.283 322.606 146.283H318.062C317.913 146.283 317.79 146.337 317.695 146.446C317.6 146.541 317.553 146.656 317.553 146.792V155.901H315.331V146.792C315.331 146.656 315.277 146.541 315.168 146.446C315.073 146.337 314.958 146.283 314.822 146.283H310.257C310.121 146.283 310.006 146.337 309.911 146.446C309.816 146.541 309.768 146.656 309.768 146.792V155.901H307.547ZM327.327 155.901V146.282C327.327 145.862 327.432 145.481 327.642 145.139C327.852 144.786 328.128 144.504 328.47 144.295C328.823 144.085 329.209 143.98 329.629 143.98H336.931C337.35 143.98 337.736 144.085 338.09 144.295C338.443 144.504 338.724 144.786 338.934 145.139C339.144 145.481 339.249 145.862 339.249 146.282V155.901H337.046V151.894H329.513V155.901H327.327ZM329.513 149.709H337.046V146.381C337.046 146.326 337.024 146.282 336.98 146.248C336.936 146.204 336.886 146.182 336.831 146.182H329.712C329.656 146.182 329.607 146.204 329.563 146.248C329.529 146.282 329.513 146.326 329.513 146.381V149.709ZM332.079 142.987L332.857 139.957H335.043L334.298 142.987H332.079ZM345.407 155.901V146.182H340.539V143.98H352.46V146.182H347.609V155.901H345.407ZM353.467 155.901V143.98H355.636V155.901H353.467ZM359.541 155.901C359.122 155.901 358.735 155.796 358.382 155.587C358.04 155.377 357.764 155.101 357.554 154.759C357.345 154.406 357.24 154.019 357.24 153.6V146.282C357.24 145.862 357.345 145.481 357.554 145.139C357.764 144.786 358.04 144.504 358.382 144.295C358.735 144.085 359.122 143.98 359.541 143.98H369.128V146.182H360.005C359.828 146.182 359.685 146.232 359.574 146.331C359.475 146.431 359.425 146.574 359.425 146.762V153.12C359.425 153.296 359.475 153.44 359.574 153.55C359.685 153.65 359.828 153.699 360.005 153.699H369.128V155.901H359.541ZM370.887 155.901V146.282C370.887 145.862 370.992 145.481 371.202 145.139C371.412 144.786 371.688 144.504 372.03 144.295C372.383 144.085 372.769 143.98 373.189 143.98H380.491C380.91 143.98 381.296 144.085 381.65 144.295C382.003 144.504 382.284 144.786 382.494 145.139C382.704 145.481 382.809 145.862 382.809 146.282V155.901H380.606V151.894H373.073V155.901H370.887ZM373.073 149.709H380.606V146.381C380.606 146.326 380.584 146.282 380.54 146.248C380.496 146.204 380.446 146.182 380.391 146.182H373.272C373.216 146.182 373.167 146.204 373.123 146.248C373.089 146.282 373.073 146.326 373.073 146.381V149.709ZM392.057 155.901C391.638 155.901 391.252 155.796 390.898 155.587C390.556 155.377 390.28 155.101 390.071 154.759C389.861 154.406 389.756 154.019 389.756 153.6V146.282C389.756 145.862 389.861 145.481 390.071 145.139C390.28 144.786 390.556 144.504 390.898 144.295C391.252 144.085 391.638 143.98 392.057 143.98H401.644V146.182H392.521C392.344 146.182 392.201 146.232 392.091 146.331C391.991 146.431 391.942 146.574 391.942 146.762V153.12C391.942 153.296 391.991 153.44 392.091 153.55C392.201 153.65 392.344 153.699 392.521 153.699H401.644V155.901H392.057ZM405.639 155.901C405.219 155.901 404.833 155.796 404.48 155.587C404.138 155.377 403.862 155.101 403.652 154.759C403.442 154.406 403.337 154.019 403.337 153.6V146.282C403.337 145.862 403.442 145.481 403.652 145.139C403.862 144.786 404.138 144.504 404.48 144.295C404.833 144.085 405.219 143.98 405.639 143.98H412.957C413.377 143.98 413.758 144.085 414.1 144.295C414.453 144.504 414.734 144.786 414.944 145.139C415.154 145.481 415.259 145.862 415.259 146.282V153.6C415.259 154.019 415.154 154.406 414.944 154.759C414.734 155.101 414.453 155.377 414.1 155.587C413.758 155.796 413.377 155.901 412.957 155.901H405.639ZM405.722 153.699H412.841C412.897 153.699 412.946 153.683 412.99 153.65C413.035 153.605 413.057 153.556 413.057 153.5V146.381C413.057 146.326 413.035 146.282 412.99 146.248C412.946 146.204 412.897 146.182 412.841 146.182H405.722C405.667 146.182 405.617 146.204 405.573 146.248C405.54 146.282 405.523 146.326 405.523 146.381V153.5C405.523 153.556 405.54 153.605 405.573 153.65C405.617 153.683 405.667 153.699 405.722 153.699ZM417.255 155.901V144.082H432.356C432.858 144.082 433.307 144.204 433.701 144.449C434.094 144.693 434.407 145.013 434.638 145.407C434.882 145.8 435.005 146.242 435.005 146.731V155.901H432.824V146.792C432.824 146.656 432.77 146.541 432.661 146.446C432.566 146.337 432.451 146.283 432.315 146.283H427.77C427.621 146.283 427.499 146.337 427.404 146.446C427.309 146.541 427.261 146.656 427.261 146.792V155.901H425.04V146.792C425.04 146.656 424.985 146.541 424.877 146.446C424.782 146.337 424.666 146.283 424.53 146.283H419.966C419.83 146.283 419.714 146.337 419.619 146.446C419.524 146.541 419.476 146.656 419.476 146.792V155.901H417.255ZM437.003 155.901V143.997H446.606C447.025 143.997 447.412 144.101 447.765 144.311C448.118 144.521 448.4 144.802 448.609 145.156C448.819 145.498 448.924 145.879 448.924 146.298V149.51C448.924 149.93 448.819 150.316 448.609 150.669C448.4 151.022 448.118 151.304 447.765 151.514C447.412 151.712 447.025 151.812 446.606 151.812L439.188 151.828V155.901H437.003ZM439.387 149.61H446.506C446.562 149.61 446.611 149.593 446.656 149.56C446.7 149.527 446.722 149.483 446.722 149.427V146.381C446.722 146.326 446.7 146.282 446.656 146.248C446.611 146.204 446.562 146.182 446.506 146.182H439.387C439.332 146.182 439.282 146.204 439.238 146.248C439.205 146.282 439.188 146.326 439.188 146.381V149.427C439.188 149.483 439.205 149.527 439.238 149.56C439.282 149.593 439.332 149.61 439.387 149.61ZM452.368 155.901C451.949 155.901 451.562 155.796 451.209 155.587C450.867 155.377 450.591 155.101 450.381 154.759C450.171 154.406 450.067 154.019 450.067 153.6V143.98H452.252V153.5C452.252 153.556 452.269 153.605 452.302 153.65C452.346 153.683 452.396 153.699 452.451 153.699H459.57C459.626 153.699 459.675 153.683 459.719 153.65C459.764 153.605 459.786 153.556 459.786 153.5V143.98H461.988V153.6C461.988 154.019 461.883 154.406 461.673 154.759C461.464 155.101 461.182 155.377 460.829 155.587C460.487 155.796 460.106 155.901 459.686 155.901H452.368ZM468.083 155.901V146.182H463.215V143.98H475.136V146.182H470.285V155.901H468.083ZM476.408 155.901V146.282C476.408 145.862 476.513 145.481 476.722 145.139C476.932 144.786 477.208 144.504 477.55 144.295C477.904 144.085 478.29 143.98 478.709 143.98H486.011C486.431 143.98 486.817 144.085 487.17 144.295C487.523 144.504 487.805 144.786 488.015 145.139C488.224 145.481 488.329 145.862 488.329 146.282V155.901H486.127V151.894H478.593V155.901H476.408ZM478.593 149.709H486.127V146.381C486.127 146.326 486.105 146.282 486.061 146.248C486.017 146.204 485.967 146.182 485.912 146.182H478.792C478.737 146.182 478.687 146.204 478.643 146.248C478.61 146.282 478.593 146.326 478.593 146.381V149.709ZM492.517 155.901C492.098 155.901 491.711 155.796 491.358 155.587C491.016 155.377 490.74 155.101 490.53 154.759C490.321 154.406 490.216 154.019 490.216 153.6V146.282C490.216 145.862 490.321 145.481 490.53 145.139C490.74 144.786 491.016 144.504 491.358 144.295C491.711 144.085 492.098 143.98 492.517 143.98H502.104V146.182H492.981C492.804 146.182 492.661 146.232 492.55 146.331C492.451 146.431 492.401 146.574 492.401 146.762V153.12C492.401 153.296 492.451 153.44 492.55 153.55C492.661 153.65 492.804 153.699 492.981 153.699H502.104V155.901H492.517ZM503.598 155.901V143.98H505.767V155.901H503.598ZM509.64 155.901C509.22 155.901 508.834 155.796 508.481 155.587C508.138 155.377 507.862 155.101 507.653 154.759C507.443 154.406 507.338 154.019 507.338 153.6V146.282C507.338 145.862 507.443 145.481 507.653 145.139C507.862 144.786 508.138 144.504 508.481 144.295C508.834 144.085 509.22 143.98 509.64 143.98H516.958C517.377 143.98 517.758 144.085 518.1 144.295C518.454 144.504 518.735 144.786 518.945 145.139C519.155 145.481 519.259 145.862 519.259 146.282V153.6C519.259 154.019 519.155 154.406 518.945 154.759C518.735 155.101 518.454 155.377 518.1 155.587C517.758 155.796 517.377 155.901 516.958 155.901H509.64ZM509.722 153.699H516.842C516.897 153.699 516.947 153.683 516.991 153.65C517.035 153.605 517.057 153.556 517.057 153.5V146.381C517.057 146.326 517.035 146.282 516.991 146.248C516.947 146.204 516.897 146.182 516.842 146.182H509.722C509.667 146.182 509.618 146.204 509.573 146.248C509.54 146.282 509.524 146.326 509.524 146.381V153.5C509.524 153.556 509.54 153.605 509.573 153.65C509.618 153.683 509.667 153.699 509.722 153.699ZM521.256 155.901V144.082H530.63C531.119 144.082 531.561 144.204 531.955 144.449C532.362 144.693 532.681 145.013 532.912 145.407C533.157 145.8 533.279 146.242 533.279 146.731V155.901H531.078V146.792C531.078 146.656 531.024 146.541 530.915 146.446C530.82 146.337 530.705 146.283 530.569 146.283H523.966C523.83 146.283 523.708 146.337 523.599 146.446C523.504 146.541 523.457 146.656 523.457 146.792V155.901H521.256ZM535.305 155.901V146.282C535.305 145.862 535.41 145.481 535.62 145.139C535.829 144.786 536.105 144.504 536.447 144.295C536.801 144.085 537.187 143.98 537.606 143.98H544.908C545.328 143.98 545.714 144.085 546.067 144.295C546.42 144.504 546.702 144.786 546.912 145.139C547.121 145.481 547.226 145.862 547.226 146.282V155.901H545.024V151.894H537.491V155.901H535.305ZM537.491 149.709H545.024V146.381C545.024 146.326 545.002 146.282 544.958 146.248C544.914 146.204 544.864 146.182 544.809 146.182H537.689C537.634 146.182 537.584 146.204 537.54 146.248C537.507 146.282 537.491 146.326 537.491 146.381V149.709ZM549.129 155.901V143.963H551.315V153.699H561.051V155.901H549.129Z" fill="#00B1E2"/>
<path d="M81.2648 116.567V61.4697H87.4547V110.377H136.286V116.567H81.2648ZM140.894 116.567V70.7163C140.894 69.0351 141.301 67.5068 142.117 66.1312C142.932 64.7048 144.027 63.584 145.403 62.7688C146.829 61.9537 148.383 61.5461 150.064 61.5461H186.745C188.426 61.5461 189.954 61.9537 191.33 62.7688C192.756 63.584 193.877 64.7048 194.692 66.1312C195.508 67.5068 195.915 69.0351 195.915 70.7163V116.567H189.725V96.4693H147.084V116.567H140.894ZM147.084 90.2795H189.725V70.7163C189.725 69.9012 189.42 69.2135 188.808 68.6531C188.248 68.0417 187.56 67.736 186.745 67.736H150.064C149.249 67.736 148.536 68.0417 147.924 68.6531C147.364 69.2135 147.084 69.9012 147.084 70.7163V90.2795ZM433.806 116.567V70.7163C433.806 69.0351 434.214 67.5068 435.029 66.1312C435.844 64.7048 436.939 63.584 438.315 62.7688C439.741 61.9537 441.295 61.5461 442.976 61.5461H479.657C481.338 61.5461 482.867 61.9537 484.242 62.7688C485.669 63.584 486.79 64.7048 487.605 66.1312C488.42 67.5068 488.827 69.0351 488.827 70.7163V116.567H482.637V96.4693H439.996V116.567H433.806ZM439.996 90.2795H482.637V70.7163C482.637 69.9012 482.332 69.2135 481.72 68.6531C481.16 68.0417 480.472 67.736 479.657 67.736H442.976C442.161 67.736 441.448 68.0417 440.837 68.6531C440.276 69.2135 439.996 69.9012 439.996 70.7163V90.2795ZM506.704 116.567C505.023 116.567 503.469 116.16 502.043 115.345C500.667 114.53 499.572 113.434 498.757 112.059C497.942 110.632 497.534 109.078 497.534 107.397V70.7163C497.534 69.0351 497.942 67.5068 498.757 66.1312C499.572 64.7048 500.667 63.584 502.043 62.7688C503.469 61.9537 505.023 61.5461 506.704 61.5461H552.403V67.736H506.704C505.889 67.736 505.176 68.0417 504.565 68.6531C504.004 69.2135 503.724 69.9012 503.724 70.7163V107.397C503.724 108.212 504.004 108.926 504.565 109.537C505.176 110.097 505.889 110.377 506.704 110.377H552.403V116.567H506.704Z" fill="#00B1E2"/>
<path d="M131.185 180.435C131.185 180.435 193.343 183.633 213.424 135.034C233.505 86.4349 243.478 36.5573 259.624 36.5573C275.771 36.5573 283.227 94.1086 300.094 94.1086C311.827 94.1086 325.322 46.5414 338.091 60.8567C343.224 66.6119 354.224 135.034 378.424 135.034C400.424 135.034 417.754 46.1096 417.754 46.1096" stroke="#00B1E2" stroke-width="1.27364"/>
<ellipse cx="2.54777" cy="2.54777" rx="2.54777" ry="2.54777" transform="matrix(1 0 0 -1 210.151 139.722)" fill="#04CB00"/>
<ellipse cx="2.54777" cy="2.54777" rx="2.54777" ry="2.54777" transform="matrix(1 0 0 -1 257.276 39.1047)" fill="#04CB00"/>
<ellipse cx="2.54777" cy="2.54777" rx="2.54777" ry="2.54777" transform="matrix(1 0 0 -1 352.799 112.976)" fill="#04CB00"/>
</g>
<defs>
<radialGradient id="paint0_radial_10_658" cx="0" cy="0" r="1" gradientUnits="userSpaceOnUse" gradientTransform="translate(317 100) rotate(90) scale(100 200)">
<stop offset="0.661458" stop-opacity="0"/>
<stop offset="1"/>
</radialGradient>
<linearGradient id="paint1_linear_10_658" x1="61.1348" y1="130.807" x2="560.402" y2="132.061" gradientUnits="userSpaceOnUse">
<stop stop-opacity="0"/>
<stop offset="0.496911" stop-color="white"/>
<stop offset="1" stop-opacity="0.25"/>
<stop offset="1" stop-opacity="0"/>
</linearGradient>
<linearGradient id="paint2_linear_10_658" x1="222.114" y1="20" x2="222.114" y2="179.842" gradientUnits="userSpaceOnUse">
<stop offset="0.0104167" stop-opacity="0"/>
<stop offset="0.489583" stop-color="white"/>
<stop offset="1" stop-opacity="0"/>
</linearGradient>
<radialGradient id="paint3_radial_10_658" cx="0" cy="0" r="1" gradientUnits="userSpaceOnUse" gradientTransform="translate(317 100) rotate(90) scale(100 200)">
<stop offset="0.661458" stop-opacity="0"/>
<stop offset="1"/>
</radialGradient>
<linearGradient id="paint4_linear_10_658" x1="61.1348" y1="130.807" x2="560.402" y2="132.061" gradientUnits="userSpaceOnUse">
<stop stop-opacity="0"/>
<stop offset="0.496911" stop-color="white"/>
<stop offset="1" stop-opacity="0.25"/>
<stop offset="1" stop-opacity="0"/>
</linearGradient>
<linearGradient id="paint5_linear_10_658" x1="222.114" y1="20" x2="222.114" y2="179.842" gradientUnits="userSpaceOnUse">
<stop offset="0.0104167" stop-opacity="0"/>
<stop offset="0.489583" stop-color="white"/>
<stop offset="1" stop-opacity="0"/>
</linearGradient>
<clipPath id="clip0_10_658">
<rect width="633" height="199.962" fill="white"/>
</clipPath>
<clipPath id="clip1_10_658">
<rect width="400" height="200" fill="white" transform="translate(117)"/>
</clipPath>
<clipPath id="clip2_10_658">
<rect width="400" height="200" fill="white" transform="translate(117)"/>
</clipPath>
</defs>
</svg>
